{"glyphs":{"0":{"ha":439,"x_min":-65,"x_max":438,"o":"m 7 0 q -45 23 -24 0 q -65 78 -65 47 q 104 343 -65 189 q 379 495 269 495 q 421 476 404 495 q 438 432 438 458 q 274 164 438 329 q 7 0 109 0 m 11 18 q 262 180 102 18 q 422 433 422 342 q 410 463 422 450 q 382 476 398 476 q 139 302 315 476 q -36 59 -36 127 q 11 18 -36 18 z "},"1":{"ha":439,"x_min":-53,"x_max":433,"o":"m 20 0 l -53 0 l 279 397 q 121 304 200 351 q -27 228 -3 232 l -34 237 l -29 244 q 417 505 46 283 q 425 508 420 506 l 433 499 q 242 260 420 470 q 20 0 132 130 z "},"2":{"ha":439,"x_min":-163,"x_max":401,"o":"m 92 19 q 203 74 129 20 q 286 128 277 128 l 291 121 q 200 48 290 98 q 83 -1 113 -1 q 51 11 66 -1 q 37 41 37 23 q 50 86 37 62 q -73 44 8 81 q -157 9 -151 9 l -163 18 l -157 28 q -79 70 -132 42 q 234 307 64 146 q 100 251 146 251 q 65 267 79 251 q 50 304 50 283 q 155 445 50 381 q 331 501 248 501 q 401 439 401 501 q 256 248 401 357 q 38 108 229 227 q 106 63 106 109 q 92 19 106 41 m 340 433 l 347 425 q 369 461 369 446 q 347 476 369 476 q 191 408 296 476 q 81 290 81 336 q 109 271 81 271 q 204 309 153 271 q 284 383 235 332 q 340 433 327 427 z "},"3":{"ha":439,"x_min":-166,"x_max":398,"o":"m 281 228 q 151 62 281 134 q -65 0 37 0 q -131 19 -100 0 q -166 74 -166 41 q -152 114 -166 96 q -115 131 -137 131 q -85 98 -85 131 q -124 58 -85 58 q -142 64 -131 58 q -117 33 -136 46 q -79 20 -98 20 q 111 102 -7 20 q 235 254 235 189 q 214 277 235 277 q 148 257 190 277 q 84 239 106 238 l 78 248 l 85 258 q 159 287 105 269 q 231 320 208 303 q 300 382 260 340 q 353 453 345 429 q 356 465 356 461 q 333 486 356 486 q 229 443 302 486 q 151 370 151 397 q 165 359 151 359 q 260 412 200 359 q 323 469 292 441 l 331 460 q 260 387 331 437 q 165 339 193 339 q 135 351 149 339 q 122 378 122 362 q 195 471 122 431 q 315 507 258 507 q 371 490 347 507 q 398 439 398 471 q 337 345 398 384 q 229 294 319 333 q 281 228 281 270 z "},"4":{"ha":439,"x_min":-88,"x_max":363,"o":"m 363 504 l -38 150 q 138 166 22 168 l 268 311 l 318 311 l 203 159 q 260 167 223 159 q 315 175 298 175 l 323 175 l 332 161 l 329 154 q 189 134 296 133 l 84 0 l 7 0 l 119 141 q 65 144 89 144 q -9 132 36 144 q -81 116 -60 117 l -88 124 l -84 134 q 277 504 70 264 l 363 504 z "},"5":{"ha":439,"x_min":-143,"x_max":471,"o":"m 252 446 l 143 335 q 224 353 186 353 q 307 278 307 353 q 174 79 307 165 q -65 0 54 0 q -120 20 -97 0 q -143 73 -143 40 q -127 115 -143 96 q -90 134 -111 134 q -52 94 -52 134 q -96 56 -52 56 q -124 68 -111 56 q -66 18 -114 18 q 129 124 1 18 q 259 299 259 233 q 210 330 259 330 q 38 235 132 330 l 29 243 l 33 250 l 275 495 q 370 475 317 475 q 418 482 387 475 q 464 489 449 489 l 471 483 q 398 450 470 467 q 308 435 335 435 q 252 446 285 435 z "},"6":{"ha":439,"x_min":-68,"x_max":467,"o":"m 124 259 q 245 300 203 300 q 289 280 272 300 q 305 233 305 260 q 195 73 305 152 q 9 -1 93 -1 q -47 20 -25 -1 q -68 73 -68 40 q 112 343 -68 185 q 402 497 288 497 q 446 482 427 497 q 467 441 467 465 q 424 390 467 390 q 397 401 409 390 q 385 428 385 413 q 420 475 385 463 q 253 399 337 475 q 124 259 252 399 m -30 47 q 0 20 -30 20 q 155 115 52 20 q 258 260 258 210 q 237 279 258 279 q 70 199 167 279 q -30 47 -30 116 z "},"7":{"ha":439,"x_min":-52,"x_max":468,"o":"m 177 471 q 276 492 229 492 q 328 485 294 492 q 380 478 363 478 q 459 501 429 478 l 468 492 l 466 486 q 327 345 419 439 q 15 0 174 186 l -52 0 q 355 414 200 308 q 319 411 337 411 q 254 424 297 411 q 190 436 212 436 q 107 391 150 436 q 62 347 65 347 l 53 355 q 115 436 57 368 q 184 507 174 504 l 193 497 l 177 471 z "},"8":{"ha":439,"x_min":-73,"x_max":433,"o":"m -73 77 q 13 208 -73 154 q 167 274 58 236 q 152 336 152 315 q 219 452 152 397 q 345 505 283 505 q 403 490 378 505 q 433 441 433 472 q 254 283 433 353 q 267 216 267 242 q 188 66 267 135 q 29 1 111 1 q -73 77 -73 1 m 347 486 q 256 454 299 486 q 211 373 211 419 q 240 300 211 350 q 413 437 413 361 q 347 486 413 486 m 26 20 q 147 60 92 20 q 207 168 207 105 q 180 254 207 199 q 33 196 96 234 q -54 77 -54 144 q 26 20 -54 20 z "},"9":{"ha":439,"x_min":-133,"x_max":397,"o":"m -80 19 q 104 104 8 19 q 248 260 143 139 q 81 185 146 185 q 29 247 29 185 q 138 405 29 328 q 321 477 238 477 q 397 406 397 477 q 221 140 397 285 q -71 0 51 0 q -133 15 -133 0 q -122 23 -133 22 q -98 21 -115 24 q -80 19 -82 19 m 333 459 q 174 364 282 459 q 65 219 65 269 q 85 203 65 203 q 311 349 174 203 l 319 339 q 363 432 363 394 q 333 459 363 459 z "}," ":{"ha":241,"x_min":0,"x_max":0,"o":""},"!":{"ha":585,"x_min":-52,"x_max":444,"o":"m 444 538 q 38 87 237 326 l 29 83 l 20 91 l 357 538 l 444 538 m 34 45 q -10 -1 24 21 q -52 41 -35 14 q -9 86 -39 69 q 34 45 12 76 z "},"\"":{"ha":393,"x_min":429,"x_max":577,"o":"m 451 513 q 429 819 429 803 q 461 879 429 879 q 484 793 484 879 q 467 513 484 805 l 451 513 m 541 513 q 527 668 534 590 q 519 823 519 762 q 552 879 519 879 q 577 795 577 879 q 558 513 577 798 l 541 513 z "},"#":{"ha":854,"x_min":56,"x_max":799,"o":"m 461 753 l 377 504 l 568 504 l 651 753 l 699 753 l 613 504 l 799 504 l 785 468 l 603 468 l 535 271 l 719 271 l 707 235 l 522 235 l 437 -10 l 391 -10 l 475 235 l 286 235 l 201 -10 l 155 -10 l 237 235 l 56 235 l 68 271 l 249 271 l 318 468 l 136 468 l 147 504 l 330 504 l 414 753 l 461 753 m 486 271 l 554 468 l 364 468 l 298 271 l 486 271 z "},"$":{"ha":514,"x_min":-75,"x_max":370,"o":"m 370 307 q 345 274 370 274 q 325 297 325 274 q 330 317 325 304 q 334 336 334 330 q 321 355 334 345 q 299 368 308 366 l 196 240 q 214 164 214 186 q 158 50 214 97 q 37 5 105 5 q 10 7 23 5 q -47 -59 -13 -26 l -55 -50 q -9 14 -37 -26 q -75 98 -75 62 q -32 155 -75 155 q -11 132 -11 155 q -31 104 -11 116 q -50 86 -50 93 q 1 28 -50 71 l 144 204 q 126 271 126 250 q 183 361 126 326 q 292 388 234 392 q 355 460 318 424 l 361 453 q 311 380 358 438 q 370 307 370 340 m 187 258 l 279 370 l 269 372 q 207 351 235 372 q 176 295 176 328 q 187 258 176 281 m 165 128 q 152 186 165 148 l 20 24 l 37 23 q 125 47 87 20 q 165 128 165 78 z "},"%":{"ha":706,"x_min":-37,"x_max":600,"o":"m 361 459 q 247 307 361 387 q 62 231 139 231 q 22 250 37 231 q 7 295 7 270 q 107 446 7 379 q 287 506 198 506 q 361 459 361 506 m -28 -73 l -37 -64 l -33 -56 q 151 128 45 15 q 330 319 240 224 q 413 412 371 366 q 503 495 469 473 l 513 487 q 248 191 489 441 q -28 -73 7 -59 m 342 461 q 304 489 342 489 q 146 406 251 489 q 40 270 40 320 q 66 251 40 251 q 236 320 136 251 q 342 461 342 394 m 600 228 q 484 75 600 155 q 300 -1 376 -1 q 259 20 275 -1 q 244 64 244 38 q 345 214 244 146 q 525 275 437 275 q 600 228 600 275 m 581 228 q 541 258 581 258 q 385 174 490 258 q 277 38 277 87 q 303 20 277 20 q 473 89 372 20 q 581 228 581 162 z "},"&":{"ha":920,"x_min":-121,"x_max":705,"o":"m 406 145 q 647 326 572 326 q 686 309 666 326 q 705 273 705 292 q 674 235 705 235 q 646 247 659 235 q 633 273 633 258 q 641 305 633 288 q 515 230 584 294 q 411 120 494 211 q 427 -7 427 45 q 309 -262 427 -157 q 43 -362 195 -362 q -62 -341 -16 -362 q -121 -261 -121 -313 q -58 -145 -121 -184 q 76 -115 -5 -113 l 94 -115 l 100 -123 l 93 -135 q -37 -155 -26 -151 q -102 -256 -102 -178 q -66 -317 -102 -294 q 5 -338 -35 -338 q 275 -196 146 -338 q 397 86 401 -56 l 396 105 q 199 10 283 10 q 134 32 163 10 q 102 92 102 56 q 200 220 102 174 q 370 270 250 244 q 411 389 376 336 q 513 452 453 452 q 580 398 580 452 q 391 254 580 308 q 406 145 391 196 m 526 434 q 429 381 467 434 q 391 273 397 337 q 500 314 469 297 q 562 403 562 349 q 550 425 562 416 q 526 434 538 434 m 203 31 q 391 127 283 31 q 372 244 379 173 q 235 176 298 218 q 148 67 148 118 q 203 31 148 31 z "},"'":{"ha":224,"x_min":420,"x_max":547,"o":"m 524 791 q 547 770 547 791 q 497 710 547 751 q 427 670 447 670 l 420 677 q 524 791 504 791 z "},"(":{"ha":671,"x_min":246,"x_max":953,"o":"m 940 834 q 953 826 951 834 l 943 815 q 831 780 905 804 q 458 488 633 710 q 277 56 277 257 q 291 -23 277 28 q 305 -99 305 -75 q 293 -109 305 -109 l 288 -108 q 246 85 246 -18 q 429 534 246 326 q 837 808 597 726 q 940 834 912 834 z "},")":{"ha":671,"x_min":-168,"x_max":540,"o":"m -155 -123 q -168 -115 -165 -123 l -157 -104 q -45 -69 -120 -93 q 327 223 151 0 q 508 655 508 454 q 494 734 508 682 q 480 810 480 786 q 492 820 480 821 l 498 819 q 540 624 540 728 q 357 175 540 383 q -51 -97 190 -16 q -155 -123 -127 -123 z "},"*":{"ha":1314,"x_min":-54,"x_max":168,"o":"m 88 762 l 75 756 q 50 846 71 760 l -25 787 l -31 795 q 34 865 -28 804 q -53 893 5 874 l -54 899 q -44 909 -54 907 q 41 888 -16 902 q 25 977 34 917 l 35 983 l 43 977 q 66 892 50 957 q 136 951 77 901 l 145 941 q 81 874 124 918 q 168 838 168 842 q 157 828 168 828 q 71 850 154 828 q 88 762 78 821 z "},"+":{"ha":818,"x_min":63,"x_max":731,"o":"m 416 668 l 416 350 l 731 350 l 731 317 l 416 317 l 416 0 l 378 0 l 378 317 l 63 317 l 63 350 l 378 350 l 378 668 l 416 668 z "},",":{"ha":257,"x_min":-143,"x_max":1,"o":"m -20 111 q 1 85 1 111 q -57 16 1 64 q -136 -34 -115 -33 l -143 -26 q -86 50 -138 -10 q -20 111 -34 111 z "},"-":{"ha":292,"x_min":-60,"x_max":146,"o":"m 146 214 q 130 174 138 194 q 97 155 118 155 q 18 157 92 155 q -60 155 -29 159 q -44 196 -52 176 q -11 214 -34 214 q 68 212 -5 214 q 146 214 115 210 z "},".":{"ha":186,"x_min":-121,"x_max":-37,"o":"m -37 45 q -79 -1 -47 20 q -121 41 -104 14 q -78 86 -108 69 q -37 45 -59 77 z "},"/":{"ha":335,"x_min":-205,"x_max":616,"o":"m -197 -114 l -205 -106 q -107 12 -205 -105 q 157 328 -21 118 q 378 561 241 419 q 601 791 558 745 l 608 793 l 616 786 q 559 714 614 776 q 490 638 524 676 q 184 286 389 519 q -190 -111 59 154 l -197 -114 z "},":":{"ha":322,"x_min":-121,"x_max":118,"o":"m -37 45 q -79 -1 -47 20 q -121 41 -104 14 q -78 86 -108 69 q -37 45 -59 77 m 118 235 q 74 191 109 214 q 34 233 48 209 q 75 279 48 263 q 118 235 95 269 z "},";":{"ha":334,"x_min":-146,"x_max":147,"o":"m 147 235 q 103 191 138 214 q 63 233 75 208 q 104 279 77 263 q 147 235 125 269 m -23 111 q -1 85 -1 111 q -59 16 -1 64 q -138 -34 -117 -33 l -146 -26 q -89 50 -141 -10 q -23 111 -37 111 z "},"<":{"ha":632,"x_min":40,"x_max":569,"o":"m 87 334 l 569 124 l 569 70 l 40 296 l 40 370 l 569 597 l 569 543 l 87 334 z "},"=":{"ha":857,"x_min":84,"x_max":747,"o":"m 747 488 l 747 443 l 84 443 l 84 488 l 747 488 m 747 228 l 747 184 l 84 184 l 84 228 l 747 228 z "},">":{"ha":632,"x_min":38,"x_max":568,"o":"m 568 370 l 568 296 l 38 70 l 38 125 l 519 334 l 38 543 l 38 597 l 568 370 z "},"?":{"ha":618,"x_min":-50,"x_max":473,"o":"m 446 468 q 429 494 446 482 q 398 503 414 503 q 275 460 356 503 q 188 375 188 412 q 215 362 188 362 q 340 415 269 362 q 416 472 378 444 l 421 467 q 331 388 420 434 q 209 345 247 345 q 155 385 155 345 q 243 486 155 444 q 385 522 318 522 q 447 500 422 522 q 473 441 473 479 q 374 307 473 366 q 210 233 351 292 q 23 90 156 210 l 18 96 q 232 282 18 129 q 446 468 446 435 m 35 45 q -9 -1 26 21 q -50 41 -33 14 q -7 86 -37 69 q 35 45 14 76 z "},"@":{"ha":971,"x_min":-49,"x_max":821,"o":"m 188 266 q 249 466 188 379 q 425 563 317 563 q 566 435 522 563 l 600 549 l 629 549 q 573 376 601 463 q 538 204 538 259 q 600 138 538 138 q 749 234 694 138 q 795 417 795 315 q 682 659 795 570 q 422 741 579 741 q 112 613 240 741 q -16 300 -16 484 q 110 12 -16 123 q 409 -93 230 -93 q 756 22 568 -93 l 769 5 q 397 -117 602 -117 q 79 -5 203 -117 q -49 304 -49 111 q 93 637 -49 505 q 433 768 232 768 q 707 677 600 768 q 821 416 821 581 q 770 213 821 303 q 604 106 709 106 q 496 200 513 106 q 336 105 428 105 q 229 154 271 105 q 188 266 188 200 m 336 136 q 486 231 424 136 q 541 409 541 315 q 506 498 541 460 q 422 536 471 536 q 271 444 332 536 q 216 267 216 361 q 251 176 216 216 q 336 136 286 136 z "},"A":{"ha":1407,"x_min":94,"x_max":1832,"o":"m 1040 66 q 1158 107 1095 78 q 1270 160 1214 134 l 1276 161 l 1281 153 l 1278 145 q 1025 46 1157 62 l 998 0 l 906 0 l 940 54 q 823 92 867 71 q 720 160 785 112 q 298 0 490 0 q 169 28 229 0 q 94 126 94 64 q 152 204 94 204 q 193 161 193 204 q 144 108 193 108 q 121 117 132 108 q 189 38 120 67 q 301 16 242 16 q 706 170 486 16 q 553 488 553 332 q 601 652 553 585 q 749 727 655 727 q 1036 455 935 727 q 1271 664 1154 559 q 1546 869 1426 798 q 1832 970 1704 962 q 1427 550 1712 894 q 1040 66 1421 545 m 1025 170 q 1394 595 1210 382 q 1777 948 1675 907 q 1389 736 1625 920 q 1040 437 1351 707 q 1052 319 1052 365 q 1025 170 1052 245 m 719 182 q 873 309 863 301 q 1021 443 960 382 q 767 691 953 691 q 626 626 678 691 q 578 474 578 566 q 719 182 578 332 m 952 70 q 1034 332 1034 189 q 1025 422 1034 376 q 735 172 947 350 q 952 70 836 92 z "},"B":{"ha":1453,"x_min":106,"x_max":1600,"o":"m 1116 433 q 1166 410 1116 410 q 1217 424 1198 410 q 1159 453 1191 453 q 1116 433 1116 453 m 156 175 q 193 161 177 175 q 208 126 208 147 q 163 65 208 91 q 329 24 235 24 q 720 183 519 24 q 1066 519 805 250 q 1428 822 1280 741 q 1221 930 1352 893 q 987 961 1110 961 q 596 882 769 961 q 300 619 401 793 q 265 500 265 559 q 333 385 265 425 q 470 350 390 350 q 785 446 600 350 q 995 669 995 553 q 947 746 995 718 q 855 770 906 770 q 404 455 612 770 l 397 452 l 388 459 l 389 465 q 582 689 444 592 q 858 789 723 789 q 960 760 915 789 q 1013 671 1013 726 q 812 422 1013 528 q 482 333 640 333 q 327 368 391 333 q 246 495 246 411 q 286 628 246 559 q 587 897 388 806 q 987 977 763 977 q 1230 944 1114 977 q 1444 831 1367 905 q 1595 918 1509 873 l 1600 908 l 1597 901 q 1455 817 1535 871 q 1498 693 1498 756 q 1421 515 1498 581 q 1248 413 1388 486 q 1268 324 1268 366 q 1146 97 1268 200 q 903 -2 1029 -2 q 814 62 814 -2 q 935 199 814 114 q 1107 281 1053 282 l 1114 273 l 1108 267 q 946 185 1029 237 q 833 63 833 114 q 854 28 833 42 q 895 16 872 16 q 1116 146 998 16 q 1234 379 1234 275 q 1229 408 1234 391 q 1164 393 1202 393 q 1121 401 1142 393 q 1095 433 1095 413 q 1166 471 1095 471 q 1236 431 1202 471 q 1384 565 1326 486 q 1451 749 1451 656 q 1440 808 1451 777 q 1216 610 1326 749 q 983 324 1030 376 q 713 95 845 171 q 359 1 550 1 q 208 24 281 1 q 106 115 106 56 q 120 156 106 138 q 156 175 134 175 z "},"C":{"ha":1046,"x_min":117,"x_max":1299,"o":"m 364 512 q 427 519 395 512 q 789 806 581 670 q 1201 977 1050 977 q 1299 916 1299 977 q 884 602 1299 762 q 515 508 747 548 q 363 323 446 446 q 269 113 269 183 q 328 37 269 64 q 429 16 374 16 q 695 99 547 16 q 861 300 861 193 q 830 353 861 334 q 768 369 804 369 q 565 299 677 369 q 403 170 486 250 q 336 100 369 135 l 329 107 l 332 114 q 526 295 385 206 q 773 385 671 385 q 845 364 816 385 q 878 299 878 340 q 709 84 878 183 q 432 -4 557 -4 q 296 34 357 -4 q 226 149 226 78 q 402 498 226 305 q 358 494 381 494 q 197 545 269 494 q 117 686 117 601 q 311 959 117 857 q 657 1040 473 1044 l 685 1038 l 693 1029 l 687 1021 q 157 787 281 1021 q 134 690 134 743 q 212 557 134 609 q 364 512 279 512 m 1282 916 q 1202 958 1282 958 q 840 806 1043 958 q 541 533 732 725 q 877 616 727 555 q 1282 916 1282 781 z "},"D":{"ha":1395,"x_min":108,"x_max":1573,"o":"m 555 31 q 694 13 625 13 q 1152 197 962 13 q 1344 651 1344 383 q 1341 726 1344 672 q 1178 572 1252 673 q 1055 384 1116 478 q 843 153 948 223 q 555 31 756 94 m 505 33 q 250 84 378 84 q 127 56 127 84 q 296 10 127 10 q 505 33 392 10 m 536 18 q 294 -9 390 -9 q 108 56 108 -9 q 245 104 108 104 q 535 43 372 104 q 752 149 675 90 q 920 323 821 200 q 1111 549 1044 479 q 1335 742 1224 670 q 1164 932 1296 867 q 907 987 1052 987 q 408 778 608 987 q 243 498 243 606 q 326 391 243 433 q 467 354 396 354 q 802 441 624 354 q 1013 682 1013 543 q 964 758 1013 730 q 872 779 924 779 q 591 670 739 779 q 372 450 473 583 l 365 447 l 356 455 l 358 463 q 583 685 416 576 q 876 795 752 795 q 978 768 934 795 q 1029 682 1029 736 q 815 427 1029 533 q 467 336 633 336 q 294 388 364 336 q 217 545 217 446 q 473 890 217 755 q 918 1003 687 1003 q 1178 945 1061 1003 q 1350 751 1315 876 q 1567 876 1529 874 l 1573 867 l 1569 861 q 1357 735 1493 829 q 1360 662 1360 696 q 1170 194 1360 392 q 710 -6 977 -6 q 536 18 612 -6 z "},"E":{"ha":991,"x_min":103,"x_max":1185,"o":"m 223 774 q 487 612 223 612 q 608 627 556 612 l 608 637 q 773 887 606 777 q 1072 987 924 987 q 1147 970 1116 987 q 1185 907 1185 948 q 956 711 1185 809 q 635 615 779 636 q 651 569 637 589 l 682 570 q 783 523 783 574 q 741 495 783 495 q 646 551 704 495 q 391 459 517 543 q 202 264 271 379 q 153 132 153 182 q 225 45 153 75 q 347 25 277 25 q 620 90 481 25 q 788 290 788 170 q 752 345 788 326 q 684 360 724 360 q 448 281 575 360 q 255 115 339 214 l 249 113 l 241 121 l 241 126 q 439 298 298 218 q 687 378 580 378 q 766 358 731 378 q 807 293 807 334 q 634 75 807 161 q 345 5 492 5 q 182 42 247 5 q 103 180 103 88 q 291 458 103 344 q 631 569 446 552 l 610 610 q 481 597 554 597 q 205 774 205 597 q 370 988 205 911 q 656 1046 504 1050 l 677 1046 l 688 1037 l 680 1028 q 513 1007 596 1018 q 353 962 413 993 q 237 845 275 922 q 223 774 223 815 m 746 513 q 764 525 764 513 q 688 551 764 553 l 675 551 q 746 513 716 513 m 1168 907 q 1138 954 1168 937 q 1082 968 1114 968 q 821 854 964 968 q 637 631 685 747 q 943 727 777 657 q 1168 907 1168 821 z "},"F":{"ha":1061,"x_min":112,"x_max":1910,"o":"m 1030 503 l 1105 511 q 1234 608 1185 608 q 1266 581 1266 608 q 1215 523 1266 551 q 1136 493 1175 500 q 1101 411 1118 452 q 1044 357 1074 357 q 1025 357 1038 357 q 1008 359 1013 358 l 1000 363 q 1039 428 1001 378 q 1092 490 1070 468 l 1020 481 q 749 144 888 254 q 349 7 577 7 q 199 31 260 7 q 112 140 112 64 q 129 183 112 165 q 170 200 145 200 q 200 185 187 200 q 212 153 212 171 q 202 124 212 138 q 177 108 191 108 q 136 121 155 108 q 345 23 156 23 q 596 92 486 23 q 772 262 683 147 q 926 475 849 369 q 675 427 795 468 q 601 399 593 399 l 596 399 l 591 407 l 597 415 q 937 493 722 479 q 1141 720 1003 581 q 1364 917 1289 870 l 1373 919 l 1379 913 l 1376 905 q 1318 851 1356 882 q 1258 800 1271 812 q 1030 503 1116 665 m 1247 577 q 1235 589 1247 589 q 1182 562 1213 589 q 1142 514 1156 538 q 1202 538 1166 519 q 1247 577 1247 560 m 972 964 q 663 901 808 964 q 475 677 475 821 q 533 594 475 623 q 639 571 578 571 q 849 627 731 571 q 987 773 987 692 q 957 830 987 810 q 894 848 931 848 q 585 713 736 848 q 517 646 563 689 l 511 645 l 507 650 l 509 658 q 677 798 543 728 q 890 865 806 865 q 965 845 933 865 q 1003 781 1003 822 q 864 614 1003 685 q 639 553 745 553 q 519 581 569 553 q 458 680 458 615 q 489 782 458 739 q 842 976 595 934 q 1262 994 953 994 q 1494 993 1339 994 q 1725 992 1648 992 q 1819 1006 1787 992 q 1896 1057 1841 1015 l 1903 1059 l 1910 1050 l 1908 1043 q 1537 922 1796 922 q 1255 943 1442 922 q 972 964 1067 964 z "},"G":{"ha":1411,"x_min":177,"x_max":1609,"o":"m 195 543 q 505 350 195 370 q 758 625 562 475 q 1154 861 939 764 q 1506 962 1374 962 q 1609 901 1609 962 q 1466 713 1609 829 q 1255 569 1371 636 q 943 433 1124 492 q 614 339 878 412 q 534 149 534 223 q 661 64 534 64 q 1055 200 819 64 q 1164 287 1099 225 q 1270 376 1234 353 l 1276 376 l 1281 372 l 1279 364 q 1114 190 1221 311 q 959 -49 1063 109 q 1122 50 1029 -20 q 1276 161 1240 140 l 1281 162 l 1289 153 l 1285 146 q 1123 27 1204 87 q 947 -70 1027 -39 q 691 -292 857 -186 q 380 -408 509 -408 q 298 -353 298 -408 q 522 -187 298 -275 q 822 -92 617 -150 q 935 54 919 35 q 1064 184 1001 135 q 664 46 817 46 q 534 85 584 46 q 480 207 480 128 q 500 334 480 269 q 177 545 177 351 q 401 865 177 735 q 798 974 597 979 l 822 973 l 832 964 l 824 957 q 703 947 783 955 q 372 826 514 919 q 195 543 195 711 m 809 -115 q 530 -203 659 -153 q 317 -352 317 -286 q 386 -389 317 -389 q 628 -304 507 -389 q 809 -115 734 -230 m 628 361 q 944 454 889 436 q 1246 585 1119 512 q 1449 724 1348 643 q 1591 901 1591 839 q 1509 947 1591 947 q 1021 737 1312 947 q 628 361 767 553 z "},"H":{"ha":1231,"x_min":87,"x_max":1839,"o":"m 768 450 q 376 333 545 405 q 106 82 106 219 q 218 22 106 22 q 544 161 391 22 q 768 450 652 260 m 1189 562 q 1561 666 1356 581 q 1823 895 1823 775 q 1724 951 1823 951 q 1189 562 1552 951 m 890 490 l 1073 522 q 1164 616 1103 553 q 1424 837 1283 739 q 1725 966 1609 966 q 1839 893 1839 966 q 1565 648 1839 762 q 1171 541 1354 562 q 971 290 1067 418 q 822 37 822 90 q 859 7 822 7 q 958 43 905 7 q 1038 111 990 64 q 1086 149 1077 148 l 1092 143 l 1090 135 q 986 37 1024 65 q 857 -11 920 -11 q 784 61 784 -11 q 886 294 784 151 q 1055 500 931 357 l 877 471 q 806 379 853 441 q 548 127 688 227 q 217 4 375 4 q 87 81 87 4 q 369 349 87 231 q 783 471 534 419 q 1099 804 944 689 q 996 774 1045 774 q 919 821 930 774 q 899 909 909 865 q 764 958 870 958 q 565 911 659 958 q 450 759 450 854 q 492 691 450 716 q 572 669 528 669 q 732 713 637 669 q 878 800 810 749 l 885 793 q 744 699 867 751 q 573 651 629 651 q 479 677 519 651 q 433 760 433 709 q 551 923 433 862 q 759 972 648 972 q 880 951 826 972 q 966 871 947 924 q 976 826 971 848 q 1006 799 983 799 q 1158 865 1069 799 q 1253 932 1246 931 l 1258 925 q 1255 917 1257 922 q 1189 858 1249 907 q 1109 791 1121 803 q 994 645 1057 737 q 890 490 942 568 z "},"I":{"ha":1007,"x_min":93,"x_max":1539,"o":"m 989 499 q 1119 546 1058 503 q 1218 643 1166 578 q 1304 754 1261 699 l 1311 758 l 1319 751 q 1265 675 1318 744 q 1142 544 1196 585 q 977 480 1065 484 q 292 -9 678 -9 q 163 16 218 -9 q 93 116 93 50 q 110 166 93 145 q 156 188 127 188 q 195 148 195 188 q 152 104 195 104 q 124 119 138 104 q 120 100 120 111 q 184 25 120 49 q 292 8 230 8 q 661 161 505 8 q 901 495 748 246 q 787 639 787 535 q 1042 935 787 821 q 1455 1028 1248 1028 q 1539 1016 1533 1028 l 1535 1010 q 1208 814 1332 942 q 989 499 1121 725 m 911 511 q 1160 813 1050 711 q 1493 1013 1309 952 q 1152 956 1312 1012 q 868 764 964 889 q 809 618 809 688 q 844 551 809 583 q 911 511 873 523 z "},"J":{"ha":778,"x_min":-91,"x_max":1322,"o":"m 846 554 q 1131 721 886 570 l 1137 713 l 1133 705 q 827 529 953 574 q 637 288 756 449 q 448 45 511 119 q 572 113 500 66 q 691 190 631 151 q 702 180 702 190 q 578 96 702 167 q 426 16 467 33 q 214 -176 332 -87 q -33 -294 59 -294 q -72 -278 -54 -294 q -91 -241 -91 -262 q 85 -83 -91 -170 q 330 10 212 -21 q 527 279 378 66 q 715 517 658 467 l 687 517 q 572 544 618 516 q 517 644 517 578 q 668 863 517 764 q 988 996 791 944 q 1275 1040 1157 1040 q 1322 1029 1318 1040 q 1310 1015 1318 1020 q 1061 800 1178 926 q 846 554 954 677 m 715 535 l 735 536 q 1283 1022 1065 901 l 1272 1023 q 900 936 1101 1024 q 603 705 682 840 q 583 637 583 671 q 628 560 583 591 q 715 535 668 533 m -31 -275 q 158 -175 46 -275 q 315 -14 200 -138 q 92 -100 213 -42 q -73 -239 -73 -181 q -31 -275 -73 -275 z "},"K":{"ha":1377,"x_min":102,"x_max":1967,"o":"m 1162 489 q 1175 412 1175 440 q 1113 262 1175 344 q 997 134 1092 235 q 935 40 935 68 q 975 7 935 7 q 1142 90 1028 7 q 1259 174 1257 173 l 1267 163 l 1264 157 q 1124 53 1194 105 q 971 -11 1029 -11 q 923 11 941 -11 q 905 62 905 33 q 966 208 905 123 q 1082 346 1024 277 q 1144 466 1144 422 q 1142 483 1144 466 q 1084 477 1110 477 q 1009 511 1009 477 q 1072 535 1009 535 q 1155 505 1112 535 q 1347 615 1285 559 q 1592 836 1579 826 q 1871 977 1767 977 q 1967 925 1967 977 q 1930 887 1967 887 q 1908 898 1919 887 q 1898 920 1898 909 q 1916 951 1898 938 q 1865 958 1893 958 q 1674 868 1784 958 q 1516 715 1644 843 q 1162 489 1375 575 m 1409 960 l 1414 953 q 1345 888 1411 943 q 1261 821 1303 854 q 936 419 1139 708 q 658 130 812 243 q 292 -7 471 -7 q 168 17 219 -7 q 102 115 102 50 q 118 162 102 140 q 159 184 135 184 q 199 148 199 184 q 157 104 199 104 q 133 114 143 104 q 131 94 131 105 q 191 26 131 48 q 291 10 234 10 q 517 85 408 10 q 694 250 595 138 q 951 543 823 397 q 1229 815 1101 709 q 1057 767 1123 767 q 980 810 980 767 q 984 837 980 820 q 989 864 989 854 q 921 929 989 901 q 820 953 864 953 q 620 902 716 953 q 505 747 505 841 q 552 670 505 700 q 642 644 593 644 q 793 684 705 644 q 932 767 869 719 l 937 760 l 935 753 q 646 627 774 627 q 539 657 585 627 q 488 751 488 692 q 610 915 488 851 q 821 969 711 969 q 945 933 877 969 q 1025 842 1025 892 q 1022 825 1025 836 q 1019 808 1019 814 q 1065 787 1019 787 q 1290 873 1162 787 q 1409 960 1350 916 m 1133 500 q 1061 521 1100 521 q 1029 508 1029 521 q 1083 496 1029 496 q 1133 500 1110 496 z "},"L":{"ha":1292,"x_min":118,"x_max":1727,"o":"m 468 619 q 569 467 468 518 q 759 427 648 427 q 970 448 825 427 q 1255 779 1170 696 q 1623 974 1458 974 q 1727 902 1727 974 q 1461 608 1727 760 q 1063 449 1240 481 q 854 206 921 264 q 574 49 760 125 q 784 12 667 12 q 1075 104 918 12 q 1155 153 1113 127 l 1161 145 l 1157 136 q 789 -5 949 -5 q 548 39 664 -5 q 254 -6 327 -6 q 118 59 118 -6 q 244 113 118 113 q 549 61 370 113 q 958 430 758 128 q 764 410 848 410 q 559 452 645 410 q 450 616 450 507 q 640 869 450 773 q 968 964 767 932 q 1055 975 1042 975 q 1083 967 1082 975 l 1074 957 q 950 944 1033 954 q 646 852 774 918 q 468 619 468 760 m 517 50 q 241 96 367 96 q 136 58 136 96 q 181 20 136 33 q 248 12 212 12 q 517 50 389 12 m 1630 958 q 1308 781 1473 958 q 1076 471 1253 720 q 1455 624 1244 502 q 1709 905 1709 771 q 1630 958 1709 958 z "},"M":{"ha":1510,"x_min":106,"x_max":1809,"o":"m 1103 16 q 1257 83 1164 16 q 1382 165 1363 159 l 1388 159 q 1259 62 1383 128 q 1099 -3 1139 -3 q 1046 19 1071 -3 q 1022 70 1022 41 q 1338 532 1022 182 q 1767 953 1615 839 q 1422 711 1604 910 l 1002 252 q 867 108 894 134 q 711 -9 781 24 q 693 30 693 4 q 1009 517 693 159 q 1450 953 1283 828 q 1050 657 1289 910 q 650 216 850 437 q 263 -10 422 -10 q 160 20 208 -10 q 106 108 106 54 q 170 175 106 175 q 198 161 186 175 q 210 130 210 146 q 156 82 210 82 q 137 87 147 82 q 182 26 139 49 q 261 8 218 8 q 619 210 406 8 q 998 620 659 249 q 1362 938 1226 869 q 1481 978 1442 979 l 1487 978 l 1493 970 l 1490 963 q 1093 505 1320 791 q 731 15 890 248 q 979 254 833 96 l 1400 711 q 1754 966 1582 909 q 1798 978 1790 978 q 1809 970 1809 978 q 1807 963 1809 970 q 1403 488 1702 857 q 1074 35 1074 83 q 1103 16 1074 16 z "},"N":{"ha":1314,"x_min":96,"x_max":2112,"o":"m 945 7 l 940 12 l 940 18 q 977 106 958 62 q 1004 200 997 157 q 1059 465 1027 356 q 1155 717 1088 561 l 847 347 q 281 -6 554 -6 q 160 22 212 -6 q 96 121 96 56 q 111 171 96 150 q 155 193 127 193 q 189 180 174 193 q 203 149 203 168 q 150 104 203 104 q 113 129 122 104 q 282 10 118 10 q 834 360 542 10 q 1263 884 1038 604 l 1269 887 l 1277 881 l 1276 876 q 1217 754 1246 814 q 1173 625 1185 685 q 1116 379 1137 451 q 1031 153 1091 294 l 1407 616 q 1647 838 1516 751 q 1948 943 1804 943 q 2053 920 2005 943 q 2112 840 2112 891 q 2097 803 2112 819 q 2060 788 2081 788 q 2026 831 2026 788 q 2078 871 2026 861 q 1951 926 2052 926 q 1653 823 1808 926 q 1417 604 1525 738 q 1180 313 1299 459 q 955 14 1044 144 l 945 7 z "},"O":{"ha":882,"x_min":114,"x_max":1265,"o":"m 1249 913 q 1183 1004 1249 975 q 1062 1027 1133 1027 q 298 454 682 1027 q 159 123 159 248 q 203 48 159 73 q 291 27 238 27 q 608 174 429 27 q 893 500 773 309 q 1017 835 1017 696 q 992 908 1017 878 q 924 942 965 942 q 716 828 827 942 q 605 617 605 715 q 624 565 605 587 q 673 543 642 543 q 852 654 771 543 q 950 857 912 736 l 958 863 l 966 852 q 865 645 966 762 q 669 524 760 524 q 608 551 631 524 q 586 618 586 578 q 692 850 586 741 q 920 960 799 960 q 1004 919 972 960 q 1033 829 1033 882 q 906 486 1033 686 q 614 156 783 293 q 288 7 431 7 q 159 59 205 7 q 114 194 114 109 q 282 576 114 369 q 661 904 437 768 q 1062 1043 890 1043 q 1195 1017 1141 1043 q 1265 911 1265 983 q 1198 793 1265 842 q 1064 751 1135 748 l 1055 759 q 1160 795 1107 777 q 1249 913 1249 831 z "},"P":{"ha":1213,"x_min":134,"x_max":1588,"o":"m 134 127 q 150 173 134 152 q 189 194 165 194 q 220 180 207 194 q 234 147 234 165 q 193 101 234 101 q 171 105 183 101 q 371 16 195 16 q 718 184 535 16 q 1034 534 789 248 q 1360 838 1229 760 q 1204 947 1302 909 q 1016 982 1114 982 q 732 928 890 982 q 450 773 559 867 q 321 531 321 662 q 386 412 321 456 q 520 374 442 374 q 815 471 655 374 q 993 705 993 579 q 952 783 993 756 q 864 806 918 806 q 441 528 671 806 q 395 472 420 501 l 388 480 q 586 704 427 587 q 861 823 748 823 q 964 795 924 823 q 1011 704 1011 764 q 840 450 1011 557 q 534 355 689 355 q 378 393 442 355 q 302 526 302 439 q 566 875 302 731 q 1016 998 792 998 q 1373 849 1243 998 q 1478 908 1407 869 q 1577 954 1563 954 q 1588 944 1586 954 l 1584 938 q 1383 834 1465 883 q 1429 692 1429 754 q 1368 536 1429 606 q 1219 463 1304 463 q 1176 479 1195 463 q 1157 519 1157 495 q 1213 604 1157 555 q 1304 652 1268 652 l 1310 643 l 1304 634 q 1179 518 1179 583 q 1200 493 1179 493 q 1335 583 1269 493 q 1397 739 1397 667 q 1369 824 1397 781 q 1254 715 1311 786 q 1160 587 1247 707 q 954 313 1006 375 q 707 91 829 165 q 379 0 555 0 q 228 24 294 0 q 134 127 134 58 z "},"Q":{"ha":1076,"x_min":132,"x_max":1351,"o":"m 132 186 q 315 553 132 357 q 715 854 478 728 q 1114 980 951 980 q 1262 949 1192 980 q 1351 841 1351 909 q 1296 734 1351 770 q 1175 704 1249 704 q 1142 713 1142 704 q 1164 720 1142 717 q 1232 730 1187 722 q 1334 839 1334 753 q 1251 935 1334 899 q 1115 963 1185 963 q 336 449 749 963 q 172 121 172 245 q 222 45 172 72 q 316 24 262 24 q 491 70 393 24 q 458 141 461 137 q 402 186 433 186 q 336 166 372 186 q 275 136 290 140 l 269 143 q 330 186 271 164 q 410 205 382 205 q 554 105 472 205 q 900 400 726 207 q 1105 786 1105 629 q 1075 864 1105 833 q 997 895 1044 895 q 699 705 844 895 q 525 375 592 564 l 519 369 l 507 380 q 880 882 637 749 q 987 912 935 912 q 1084 879 1046 912 q 1124 786 1124 844 q 916 393 1124 631 q 566 92 732 185 q 670 30 621 30 q 964 178 779 30 l 972 168 l 970 161 q 806 52 899 97 q 618 1 701 1 q 500 55 529 1 q 312 6 393 6 q 132 186 132 6 z "},"R":{"ha":1436,"x_min":130,"x_max":1588,"o":"m 1137 413 q 1095 431 1113 429 l 1082 425 l 1082 424 q 1114 411 1082 411 q 1137 413 1124 411 m 1175 397 q 1185 333 1185 359 q 1135 205 1185 273 q 1040 104 1112 174 q 989 34 989 53 q 1008 20 989 20 q 1322 170 1102 20 l 1325 170 q 1335 161 1335 171 q 1185 67 1335 135 q 998 1 1040 1 q 954 20 973 1 q 935 64 935 39 q 1043 238 935 121 q 1152 389 1152 356 l 1151 397 q 1120 394 1131 394 q 1062 421 1062 394 q 1090 450 1062 450 q 1168 415 1122 450 q 1358 532 1265 427 q 1451 735 1451 637 q 1409 840 1451 786 q 1185 626 1297 767 q 1000 373 1093 500 q 374 0 726 0 q 223 24 290 0 q 130 127 130 58 q 145 173 130 152 q 184 194 160 194 q 216 180 202 194 q 230 147 230 165 q 189 101 230 101 q 167 105 178 101 q 366 16 191 16 q 627 109 498 16 q 831 305 715 172 l 1063 572 q 1397 853 1185 713 q 1004 972 1233 972 q 615 879 804 972 q 324 610 407 777 q 309 530 309 578 q 372 413 309 452 q 507 380 425 380 q 800 457 648 380 q 978 675 978 547 q 931 739 978 715 q 848 759 892 759 q 446 515 660 759 l 437 511 l 430 519 l 433 528 q 617 697 487 620 q 853 775 748 775 q 946 750 905 775 q 995 672 995 720 q 819 441 995 546 q 526 348 661 348 q 368 392 436 348 q 288 528 288 443 q 308 621 288 581 q 606 895 391 789 q 1004 990 802 990 q 1412 864 1244 990 q 1578 972 1572 972 q 1588 962 1586 972 l 1422 849 q 1500 676 1500 752 q 1391 481 1500 554 q 1175 397 1320 433 z "},"S":{"ha":1089,"x_min":113,"x_max":1615,"o":"m 427 667 q 533 529 427 577 q 718 492 615 492 q 964 526 802 492 l 1058 658 q 1265 863 1131 760 q 1520 983 1422 983 q 1615 924 1615 983 q 1395 679 1615 812 q 1069 530 1224 575 l 995 406 q 722 119 886 227 q 349 4 546 4 q 203 26 266 4 q 113 126 113 59 q 131 184 113 158 q 181 214 151 214 q 213 201 199 214 q 227 171 227 189 q 184 127 227 127 q 144 151 157 127 q 142 125 142 140 q 219 42 142 68 q 347 24 273 24 q 708 180 547 24 q 954 505 793 263 q 718 475 810 475 q 517 517 604 475 q 404 673 404 571 q 610 947 404 848 q 971 1022 778 1027 l 1005 1021 l 1011 1015 l 1004 1006 q 868 996 983 1003 q 734 975 785 990 q 528 867 610 938 q 427 667 427 779 m 1535 968 q 1295 857 1428 968 q 1177 713 1235 806 q 1083 553 1130 633 q 1362 676 1227 595 q 1586 877 1525 772 q 1601 919 1601 904 q 1535 968 1601 968 z "},"T":{"ha":1053,"x_min":106,"x_max":1905,"o":"m 106 140 q 123 183 106 165 q 164 200 139 200 q 194 186 182 200 q 207 154 207 172 q 196 123 207 139 q 171 108 186 108 q 130 121 149 108 q 345 23 151 23 q 600 99 496 23 q 783 299 675 153 l 939 511 q 1139 728 996 589 q 1358 917 1286 872 l 1367 919 l 1373 913 l 1371 905 q 1299 838 1348 879 q 1227 772 1247 793 q 993 443 1149 689 q 747 140 857 229 q 343 7 581 7 q 193 31 254 7 q 106 140 106 64 m 967 966 q 657 903 802 966 q 470 679 470 822 q 527 595 470 623 q 633 572 571 572 q 843 628 726 572 q 981 774 981 693 q 951 831 981 811 q 888 850 926 850 q 578 714 730 850 q 511 648 557 690 l 505 646 l 500 652 l 503 659 q 671 800 537 730 q 884 866 800 866 q 959 846 927 866 q 997 781 997 823 q 857 616 997 686 q 633 555 739 555 q 513 583 563 555 q 454 684 454 618 q 484 784 454 741 q 836 977 590 935 q 1256 996 947 996 q 1488 995 1333 996 q 1719 994 1642 994 q 1813 1007 1781 994 q 1891 1058 1835 1017 l 1897 1061 l 1905 1051 l 1902 1044 q 1532 924 1790 924 q 1249 945 1436 924 q 967 966 1061 966 z "},"U":{"ha":1050,"x_min":106,"x_max":1331,"o":"m 1254 880 l 1331 880 q 940 441 1135 661 q 602 33 602 58 q 633 16 602 16 q 805 89 701 16 q 928 170 917 168 l 938 162 q 800 62 934 131 q 629 -3 670 -3 q 576 46 576 -3 q 618 156 576 92 q 692 254 633 178 q 477 94 602 170 q 237 -2 322 -2 q 152 54 152 -2 q 317 308 152 136 q 624 611 471 459 q 789 864 789 783 q 718 946 789 919 q 602 966 667 966 q 305 895 454 966 q 125 677 125 809 q 250 591 125 591 q 505 678 360 591 q 719 850 629 753 l 726 854 l 734 845 l 732 838 q 522 656 682 745 q 257 570 366 570 q 157 593 198 570 q 106 675 106 621 q 293 909 106 817 q 605 984 448 984 q 745 955 690 984 q 814 840 814 918 q 650 541 814 731 q 345 231 573 452 q 180 39 180 72 q 199 23 180 30 q 224 17 213 17 q 595 201 365 17 q 985 578 764 338 q 1254 880 1120 729 z "},"V":{"ha":736,"x_min":108,"x_max":1610,"o":"m 956 973 l 963 965 q 890 884 959 953 q 803 794 811 804 q 695 642 760 741 q 591 486 623 528 q 389 248 524 397 q 172 28 245 89 q 631 349 366 98 q 1062 766 847 557 q 1473 972 1301 972 q 1561 955 1523 972 q 1610 886 1610 931 q 1595 845 1610 863 q 1558 828 1581 828 q 1516 871 1516 828 q 1560 924 1516 911 q 1474 951 1533 951 q 1099 775 1314 951 q 788 474 1027 715 q 526 222 612 295 q 220 26 374 94 q 136 -7 211 22 q 121 1 121 -8 q 124 9 121 1 q 192 76 146 31 q 308 218 243 128 q 530 520 481 458 q 777 808 644 669 q 640 772 715 772 q 559 800 576 772 q 549 886 549 819 q 499 941 549 922 q 419 956 463 956 q 232 907 320 956 q 127 760 127 850 q 174 673 127 703 q 274 648 214 648 q 530 768 401 648 q 543 760 543 769 l 543 754 q 420 668 511 708 q 274 629 334 629 q 161 660 206 629 q 108 760 108 694 q 218 920 108 857 q 416 973 313 973 q 545 940 490 973 q 608 832 608 901 q 659 793 608 793 q 852 882 747 793 q 956 973 905 927 z "},"W":{"ha":1074,"x_min":153,"x_max":1946,"o":"m 1099 775 q 837 515 1015 699 q 566 250 662 335 q 274 39 410 111 q 181 -7 264 33 q 168 1 168 -8 q 170 9 168 1 q 239 78 193 32 q 352 218 287 127 q 575 521 509 435 q 822 808 691 670 q 685 771 759 771 q 604 800 621 771 q 595 886 595 817 q 545 941 595 922 q 465 956 509 956 q 277 907 366 956 q 172 760 172 850 q 220 672 172 702 q 319 648 259 648 q 576 768 444 648 q 589 760 589 769 l 588 754 q 465 668 554 708 q 319 630 379 630 q 206 661 252 630 q 153 760 153 696 q 264 920 153 857 q 462 973 360 976 l 475 972 q 640 883 601 969 q 653 824 644 864 q 704 793 661 793 q 897 880 791 793 q 1002 973 949 927 l 1008 966 q 935 884 1002 952 q 849 794 856 802 q 740 642 804 741 q 635 486 666 527 q 374 191 593 430 q 299 106 337 149 q 216 28 254 56 q 531 244 380 110 q 802 513 598 303 q 1070 774 866 578 q 1318 999 1303 996 l 1326 990 l 1323 984 q 1135 745 1236 890 q 962 498 980 522 q 701 201 925 448 q 628 115 665 158 q 544 40 584 64 q 972 356 720 104 q 1390 777 1181 566 q 1809 987 1627 987 q 1898 970 1860 987 q 1946 901 1946 947 q 1895 842 1946 842 q 1852 886 1852 842 q 1898 939 1852 926 q 1810 966 1869 966 q 1436 790 1649 966 q 1126 489 1360 728 q 880 237 1003 363 q 591 38 736 104 q 507 5 516 5 q 494 12 494 5 q 495 21 494 12 q 565 90 519 43 q 680 230 612 136 q 1099 775 930 574 z "},"X":{"ha":1181,"x_min":121,"x_max":1774,"o":"m 1774 916 q 1474 646 1774 777 q 1048 509 1291 568 q 882 301 975 441 q 774 68 774 140 q 792 33 774 47 q 829 19 808 19 q 976 99 886 19 q 1074 180 1065 179 l 1079 172 l 1077 164 q 963 62 1035 113 q 829 1 879 1 q 755 35 787 1 q 724 110 724 68 q 774 259 724 161 q 521 91 659 162 q 237 3 353 3 q 160 21 191 3 q 121 85 121 43 q 459 368 121 237 q 931 500 659 445 q 1069 660 1027 602 q 1145 848 1145 767 q 960 962 1145 962 q 681 898 819 962 q 513 694 513 818 q 559 614 513 643 q 652 589 598 589 q 923 705 777 589 q 1059 825 991 765 l 1068 816 l 1065 809 q 880 649 958 701 q 653 571 762 571 q 545 601 590 571 q 493 695 493 635 q 667 909 493 825 q 956 979 810 979 q 1181 819 1181 979 q 1139 669 1181 747 q 1388 867 1259 783 q 1674 980 1563 980 q 1774 916 1774 980 m 1672 962 q 1061 529 1453 962 q 1465 663 1301 593 q 1757 911 1757 788 q 1672 962 1757 962 m 238 22 q 607 189 377 22 q 909 477 813 339 q 153 134 267 342 q 139 87 139 107 q 174 36 139 54 q 238 22 201 22 z "},"Y":{"ha":954,"x_min":136,"x_max":1324,"o":"m 444 292 q 503 258 444 258 q 715 353 582 258 q 897 513 819 428 l 1230 871 l 1324 871 l 824 313 q 602 107 700 174 q 320 12 462 12 q 203 32 251 12 q 136 119 136 60 q 156 179 136 155 q 210 203 176 203 q 249 170 249 203 q 236 139 249 153 q 207 125 224 125 q 170 148 187 125 q 161 111 161 130 q 222 44 161 66 q 320 28 264 28 q 605 161 465 28 q 815 412 658 212 q 500 240 618 240 q 403 311 403 240 q 511 511 403 397 q 711 703 610 607 q 819 881 819 811 q 754 951 819 925 q 652 972 704 972 q 374 893 520 972 q 204 682 204 802 q 314 604 204 604 q 684 800 471 604 q 736 848 707 823 l 744 840 l 741 833 q 315 586 498 586 q 227 608 262 586 q 186 684 186 633 q 361 908 186 814 q 655 988 511 988 q 772 962 720 988 q 838 870 838 929 q 736 644 838 765 q 546 454 730 637 q 444 292 444 351 z "},"Z":{"ha":1149,"x_min":117,"x_max":1413,"o":"m 854 545 q 909 525 882 525 q 978 549 944 525 q 1016 575 1015 575 l 1023 570 l 1021 562 q 955 510 1004 532 q 871 490 909 490 q 812 498 844 490 q 637 350 743 428 q 451 218 545 284 q 749 300 613 300 q 859 220 859 300 q 820 135 859 176 q 747 77 803 117 q 707 33 707 48 q 723 22 707 22 q 899 89 784 22 q 1004 157 1013 157 l 1013 146 l 1009 139 q 873 52 959 96 q 724 1 775 1 q 663 66 663 1 q 739 175 663 117 q 814 256 814 233 q 743 281 814 281 q 488 211 633 281 q 263 81 405 172 q 132 10 154 10 q 117 22 117 10 q 245 120 117 58 q 396 194 297 142 q 568 347 441 223 q 740 519 654 433 q 692 527 708 527 q 613 501 652 527 q 570 473 571 473 l 562 481 l 566 489 q 755 568 656 568 q 791 566 772 568 q 1005 745 901 664 q 848 805 848 751 q 865 851 848 822 q 883 900 883 880 q 770 951 883 951 q 543 902 661 951 q 396 749 396 842 q 441 672 396 703 q 530 644 482 644 q 730 713 618 644 q 836 784 783 749 l 841 778 l 838 770 q 705 673 795 720 q 548 624 610 624 q 435 654 482 624 q 378 751 378 688 q 530 916 378 850 q 769 968 654 968 q 884 946 832 968 q 951 863 951 918 q 943 824 951 849 q 935 786 935 799 q 1024 763 935 768 q 1385 976 1294 976 q 1413 948 1413 976 q 1259 813 1413 879 q 1042 745 1156 769 l 854 545 m 1065 768 q 1297 852 1215 802 q 1398 948 1398 913 q 1383 960 1398 960 q 1220 882 1338 960 q 1065 768 1129 823 z "},"[":{"ha":301,"x_min":-77,"x_max":124,"o":"m 124 822 l -18 823 l -18 -146 l 124 -146 l 124 -175 l -77 -175 l -77 850 l 124 850 l 124 822 z "},"\\":{"ha":911,"x_min":-76,"x_max":744,"o":"m 744 -109 l 738 -114 l 730 -111 q 298 351 655 -45 q -76 789 -62 752 l -70 793 l -62 791 q 3 726 -35 768 q 64 658 56 666 q 382 328 172 549 q 644 15 399 309 q 700 -47 671 -16 q 744 -109 743 -98 z "},"]":{"ha":301,"x_min":-121,"x_max":79,"o":"m 79 -175 l -121 -175 l -121 -146 l 20 -146 l 20 823 l -121 823 l -121 850 l 79 850 l 79 -175 z "},"^":{"ha":269,"x_min":49,"x_max":279,"o":"m 220 481 q 279 329 236 387 l 270 321 q 202 418 231 351 q 49 328 115 346 l 49 332 q 210 481 134 392 l 220 481 z "},"_":{"ha":617,"x_min":-16,"x_max":631,"o":"m -16 -163 l -16 -141 l 631 -141 l 631 -163 l -16 -163 z "},"`":{"ha":187,"x_min":0,"x_max":142,"o":"m 137 329 q 52 385 94 349 q 0 466 0 431 q 26 493 0 493 q 58 455 47 493 q 75 399 73 401 q 142 335 96 366 l 137 329 z "},"a":{"ha":477,"x_min":-174,"x_max":335,"o":"m -107 16 q 54 92 -46 16 q 157 230 157 172 q 117 264 157 264 q -34 176 68 264 q -136 41 -136 88 q -107 16 -136 16 m -174 68 q -70 218 -174 147 q 109 284 26 284 q 177 232 177 284 q 172 204 177 220 q 243 284 189 221 l 321 284 q 202 154 262 219 q 104 31 106 46 l 115 22 q 237 83 150 20 q 327 146 324 146 l 335 136 q 232 56 334 113 q 102 -1 132 -1 q 62 42 62 -1 q 68 77 62 60 q -102 -2 -33 -2 q -174 68 -174 -2 z "},"b":{"ha":424,"x_min":-151,"x_max":648,"o":"m 195 387 q 448 549 402 516 q 631 751 631 680 q 597 784 631 784 q 378 621 519 784 q 195 387 336 574 m 280 268 q 181 134 280 214 q 201 128 191 128 q 241 138 216 128 q 279 149 267 148 l 285 138 l 281 132 q 211 110 237 110 q 163 121 182 110 q 43 39 115 75 q -95 -1 -37 -1 q -150 51 -150 -1 q -112 128 -150 83 q -50 194 -81 161 q -146 134 -88 164 l -151 141 l -149 148 q -58 215 -127 174 q 35 284 11 256 q 170 446 102 365 q 394 682 297 594 q 601 802 528 802 q 634 786 620 802 q 648 751 648 771 q 318 441 648 640 q 178 357 267 416 q 40 210 118 302 q -90 55 -25 132 q -100 36 -100 43 q -75 24 -100 24 q 43 66 -36 24 q 151 136 113 103 q 147 150 147 150 q 187 234 147 185 q 262 286 229 286 q 280 268 280 286 z "},"c":{"ha":316,"x_min":-174,"x_max":179,"o":"m -98 18 q 65 82 -37 18 q 171 148 170 148 l 179 136 q 51 52 178 109 q -111 -2 -73 -2 q -174 68 -174 -2 q -80 214 -174 142 q 84 283 8 283 q 147 241 147 283 q 132 205 147 220 q 98 191 117 191 q 68 216 68 191 q 106 250 68 250 q 127 243 115 250 q 92 264 114 264 q -48 179 39 264 q -136 41 -136 94 q -98 18 -136 18 z "},"d":{"ha":477,"x_min":-177,"x_max":660,"o":"m -177 68 q -73 218 -177 146 q 102 284 22 284 q 171 241 163 284 l 569 701 l 660 701 q 351 347 505 524 q 86 31 92 50 l 98 23 q 235 83 144 21 q 334 146 328 146 l 337 140 q 224 56 335 114 q 84 -1 117 -1 q 45 30 45 -1 q 56 70 45 47 q -111 -3 -42 -3 q -177 68 -177 -3 m -111 16 q 50 92 -49 16 q 154 230 154 172 q 114 264 154 264 q -37 176 65 264 q -140 41 -140 88 q -111 16 -140 16 z "},"e":{"ha":307,"x_min":-178,"x_max":170,"o":"m 163 149 l 170 138 l 167 132 q -89 -2 -18 -2 q -178 66 -178 -2 q -85 214 -178 140 q 79 286 4 286 q 121 250 121 286 q 56 178 121 210 q -64 126 -4 153 q -130 43 -130 92 q -99 19 -130 19 q 63 84 -35 19 q 163 149 161 149 m -52 159 q 101 250 101 209 q 86 265 101 265 q -52 159 34 265 z "},"f":{"ha":298,"x_min":-480,"x_max":675,"o":"m -96 105 l -59 148 l -65 166 l -96 105 m -41 165 l 14 225 q -22 207 -5 216 q -44 176 -44 193 q -41 165 -44 176 m 224 387 q 473 534 328 433 q 656 724 656 661 q 624 760 656 760 q 408 608 549 760 q 224 387 355 552 m 151 148 l 157 139 l 153 132 q 28 85 83 85 q -20 99 5 85 l -404 -348 l -480 -348 q -267 -96 -374 -222 q -83 174 -150 49 q -152 128 -110 153 l -160 138 l -156 145 q -68 203 -100 183 q -5 286 -46 286 q 12 276 5 286 q 18 258 19 267 q 93 315 44 275 q 347 587 220 451 q 627 779 538 779 q 661 766 646 779 q 675 734 675 753 q 480 517 675 648 q 202 355 449 496 q -5 115 180 343 q 31 103 14 103 q 103 124 64 103 q 151 148 144 147 z "},"g":{"ha":446,"x_min":-443,"x_max":311,"o":"m -391 -327 q -220 -235 -311 -327 q -90 -75 -213 -227 q -288 -157 -237 -131 q -423 -295 -423 -227 q -391 -327 -423 -327 m 233 284 l 311 284 l 56 -6 q 295 146 162 43 q 306 140 306 149 l 305 134 q 207 60 295 119 q 96 -8 125 7 q 28 -41 72 -17 q -167 -225 -70 -133 q -391 -344 -300 -344 q -443 -295 -443 -344 q -291 -140 -443 -216 q -68 -50 -243 -115 l 9 41 q -114 -3 -62 -3 q -180 68 -180 -3 q -75 218 -180 146 q 102 284 20 284 q 170 219 176 284 l 233 284 m -113 16 q 47 92 -52 16 q 151 230 151 172 q 111 264 151 264 q -40 176 62 264 q -142 41 -142 88 q -113 16 -142 16 z "},"h":{"ha":517,"x_min":-210,"x_max":650,"o":"m 196 387 q 450 549 404 516 q 632 751 632 680 q 598 784 632 784 q 379 621 521 784 q 196 387 338 574 m -144 132 l -149 140 l -147 148 q -56 215 -123 174 q 37 284 11 255 q 173 448 105 366 q 397 682 300 595 q 602 802 530 802 q 636 786 622 802 q 650 751 650 771 q 549 597 650 681 q 345 461 485 544 q 180 357 208 381 q 96 267 143 325 q 18 170 57 218 q 229 284 158 284 q 267 240 267 284 q 198 116 267 190 q 129 31 130 42 l 141 23 q 278 84 186 21 q 376 147 370 146 l 380 140 q 268 56 378 115 q 127 -1 160 -1 q 85 46 85 -1 q 157 170 85 90 q 230 257 229 250 l 222 267 q -125 0 115 270 l -210 0 l -19 210 q -144 132 -71 172 z "},"i":{"ha":285,"x_min":-155,"x_max":254,"o":"m 254 441 q 210 395 244 418 q 170 439 184 412 q 211 483 182 467 q 254 441 232 473 m 111 284 q -7 153 52 219 q -105 31 -104 45 l -94 23 q 42 83 -50 21 q 140 148 138 148 l 146 138 q 33 56 145 114 q -108 -1 -75 -1 q -149 43 -149 -1 q -123 115 -149 77 q -74 176 -121 118 q -148 131 -102 155 l -155 140 l -151 148 q 34 284 -37 223 l 111 284 z "},"j":{"ha":254,"x_min":-615,"x_max":256,"o":"m -570 -325 q -412 -229 -503 -325 q -288 -75 -392 -208 q -597 -295 -597 -194 q -570 -325 -597 -325 m -568 -342 q -601 -328 -587 -342 q -615 -296 -615 -314 q -475 -140 -615 -217 q -265 -50 -412 -105 l -71 176 q -144 130 -98 156 l -152 140 l -147 148 q 37 284 -40 218 l 113 284 l -125 14 q -7 75 -76 33 q 105 147 49 111 l 109 140 l 108 134 q 11 66 93 117 q -96 5 -65 20 q -153 -22 -116 -2 q -277 -139 -184 -45 q -425 -276 -372 -235 q -568 -342 -510 -342 m 256 441 q 212 395 247 418 q 172 439 190 409 q 214 483 186 467 q 256 441 235 473 z "},"k":{"ha":492,"x_min":-189,"x_max":691,"o":"m 227 387 q 673 738 673 616 q 639 769 673 769 q 410 618 548 769 q 227 387 369 573 m 95 -1 q 57 37 57 -1 q 81 98 57 61 q 106 142 106 136 q 52 156 106 156 l 31 155 l -106 -3 l -189 -1 l 20 243 q -149 132 -57 189 l -153 142 l -151 150 q -13 237 -81 193 q 112 340 68 292 q 261 512 186 427 q 453 699 370 634 q 643 787 564 787 q 676 772 662 787 q 691 738 691 758 q 559 560 691 663 q 357 433 471 492 q 211 357 303 410 q 130 272 175 328 q 54 179 92 226 q 197 239 117 179 q 317 299 276 299 q 366 264 366 299 q 345 243 366 243 q 327 256 330 243 q 330 280 323 268 q 317 283 317 283 q 233 233 302 283 q 122 166 157 178 q 155 118 155 147 q 108 25 155 88 q 117 24 117 24 q 250 85 161 24 q 345 147 338 147 l 349 140 q 237 56 349 115 q 95 -1 128 -1 z "},"l":{"ha":285,"x_min":-151,"x_max":650,"o":"m 196 387 q 450 549 404 516 q 632 751 632 680 q 598 784 632 784 q 379 621 521 784 q 196 387 338 574 m 144 147 l 149 140 q 39 52 149 109 q -104 -1 -64 -1 q -146 43 -146 -1 q -120 115 -146 77 q -71 176 -117 119 q -144 132 -100 156 l -151 140 l -147 148 q -50 210 -99 179 q 37 284 5 248 q 172 447 104 366 q 396 682 300 595 q 602 802 530 802 q 636 786 622 802 q 650 751 650 771 q 549 597 650 681 q 342 460 484 543 q 180 357 206 380 q 41 210 120 304 q -88 55 -24 133 q -103 31 -95 47 l -92 23 q 47 81 -41 21 q 144 147 142 147 z "},"m":{"ha":819,"x_min":-153,"x_max":685,"o":"m 434 31 l 446 23 q 583 83 492 21 q 681 147 677 146 l 685 140 q 575 54 685 111 q 432 -1 470 -1 q 389 46 389 -1 q 451 161 389 87 q 545 264 498 212 q 533 267 533 267 q 180 0 418 267 l 100 0 l 319 264 q 307 268 307 268 q -49 0 195 268 l -125 0 q 85 259 -23 121 l 75 265 q -47 201 42 266 q -146 132 -142 134 l -153 140 q -48 225 -151 165 q 84 284 52 284 q 110 273 98 284 q 121 247 121 261 q 94 170 121 218 q 308 284 238 284 q 345 240 345 284 q 321 170 345 206 q 533 284 462 284 q 572 240 572 284 q 503 116 572 190 q 434 31 434 42 z "},"n":{"ha":593,"x_min":-152,"x_max":456,"o":"m 83 259 l 75 265 q -144 132 34 266 l -152 140 l -149 146 q -37 231 -98 191 q 86 283 46 283 q 120 248 120 283 q 93 170 120 215 q 304 284 236 284 q 342 240 342 284 q 273 115 342 187 q 205 32 205 43 q 217 23 205 23 q 358 85 266 23 q 452 147 450 146 l 456 140 q 346 54 456 112 q 203 -1 239 -1 q 161 46 161 -1 q 222 161 161 87 q 317 264 270 212 q 305 267 305 267 q -50 0 192 267 l -127 0 q 83 259 -24 121 z "},"o":{"ha":356,"x_min":-177,"x_max":219,"o":"m 212 153 l 219 144 l 215 136 q 103 110 175 110 q -102 -3 -20 -3 q -177 68 -177 -3 q -73 218 -177 146 q 104 284 23 284 q 150 272 130 284 q 174 233 174 257 q 122 130 174 191 q 170 140 141 130 q 212 153 199 151 m -111 16 q 50 92 -49 16 q 154 230 154 172 q 114 264 154 264 q -37 176 65 264 q -140 41 -140 88 q -111 16 -140 16 z "},"p":{"ha":517,"x_min":-528,"x_max":374,"o":"m 249 471 l 12 175 q 221 284 146 284 q 261 240 261 284 q 192 114 261 187 q 123 31 123 41 q 135 23 123 23 q 275 83 187 23 q 370 147 368 147 l 374 140 q 263 54 374 113 q 121 -1 157 -1 q 79 46 79 -1 q 140 161 79 87 q 234 264 187 212 q 222 267 222 267 q 83 203 178 267 q -40 102 -3 145 l -448 -384 l -528 -384 l -49 195 q -146 132 -89 165 l -155 140 l -151 146 q 34 300 -66 202 q 202 471 118 385 l 249 471 z "},"q":{"ha":481,"x_min":-323,"x_max":345,"o":"m -107 18 q 54 94 -46 18 q 157 231 157 173 q 117 267 157 267 q -34 178 68 267 q -136 43 -136 90 q -107 18 -136 18 m -241 -354 l -323 -354 l 0 34 q -109 -1 -61 -1 q -174 70 -174 -1 q -71 219 -174 147 q 105 286 25 286 q 172 248 161 286 l 203 284 l 295 284 l -54 -125 q 148 26 -5 -83 q 340 147 318 146 l 345 140 l 343 134 q 272 80 319 109 q 195 35 233 58 q -39 -140 50 -62 q -241 -354 -132 -222 z "},"r":{"ha":319,"x_min":-155,"x_max":182,"o":"m -152 146 q -26 259 -66 218 q -52 291 -52 267 q -9 332 -52 332 q 18 304 18 332 q 5 277 18 288 q 78 288 45 277 l 104 234 q 8 131 56 182 q -69 33 -69 46 q -56 24 -69 24 q 174 148 18 24 l 182 137 q 68 56 181 115 q -73 -1 -41 -1 q -115 50 -115 -1 q -48 165 -115 90 q 44 259 -2 212 q 0 256 20 255 q -147 131 -124 132 l -155 140 l -152 146 z "},"s":{"ha":329,"x_min":-180,"x_max":184,"o":"m 84 106 q 177 148 111 111 l 184 139 q 134 103 184 122 q 68 85 91 86 q -115 -5 -33 -5 q -180 47 -180 -5 q -135 100 -180 100 q -106 75 -106 100 q -156 34 -106 33 q -125 15 -155 15 q 75 280 -9 15 q -142 130 52 264 l -151 142 q -3 252 -149 148 q 156 359 143 355 l 166 347 q 103 296 145 330 q 101 267 101 285 q 105 231 101 254 q 109 195 109 207 q 84 106 109 146 z "},"t":{"ha":306,"x_min":-153,"x_max":345,"o":"m -146 130 l -153 140 l -149 148 q 131 375 44 278 l 96 375 l 84 384 q 147 394 90 396 l 265 526 l 345 526 l 225 394 l 311 394 l 319 385 q 212 375 317 372 q 50 195 131 285 q -87 29 -85 43 l -77 23 q 161 148 2 19 l 167 138 q 56 53 166 110 q -86 -1 -49 -1 q -128 41 -128 -1 q -81 144 -128 90 q 1 227 -40 185 q -146 130 -65 180 z "},"u":{"ha":503,"x_min":-155,"x_max":365,"o":"m -146 131 l -155 141 q -76 201 -153 147 q 26 284 7 261 l 117 284 q -3 152 57 218 q -102 28 -100 42 l -92 22 q 241 284 4 18 l 333 284 q 214 153 273 218 q 115 30 115 43 q 130 20 115 20 q 360 149 212 20 l 365 140 l 363 134 q 115 -1 217 -1 q 73 39 73 -1 q 99 114 73 68 q -113 -4 -47 -4 q -151 40 -151 -4 q -63 184 -151 76 q -146 131 -98 159 z "},"v":{"ha":437,"x_min":-155,"x_max":296,"o":"m -75 33 q -49 20 -75 20 q 161 136 28 20 q 157 150 157 150 q 197 234 157 185 q 273 286 239 286 q 290 268 290 286 q 191 134 290 214 q 214 125 201 125 q 256 136 233 125 q 289 149 279 148 l 296 139 l 292 132 q 213 104 252 104 q 176 120 193 104 q -45 1 30 1 q -109 59 -109 1 q -35 177 -109 101 q 41 260 40 253 l 31 267 q -72 199 1 268 q -146 130 -144 130 l -155 136 q -72 222 -155 161 q 39 284 10 284 q 77 235 77 284 q 1 120 77 193 q -75 33 -75 46 z "},"w":{"ha":669,"x_min":-154,"x_max":538,"o":"m 130 105 q 43 39 86 72 q -55 0 -15 0 q -92 18 -76 0 q -108 58 -108 36 q -33 177 -108 101 q 42 260 41 254 l 33 267 q -69 199 4 268 q -145 130 -142 130 l -154 136 q -71 222 -153 161 q 40 284 12 284 q 79 235 79 284 q 7 119 79 197 q -65 28 -65 40 q -50 19 -65 19 q 277 284 41 19 l 367 284 q 250 155 309 220 q 155 34 155 47 q 184 20 155 20 q 292 64 222 20 q 389 136 346 97 q 386 150 386 150 q 426 234 386 185 q 501 286 467 286 q 519 268 519 286 q 418 134 519 215 q 444 125 429 125 q 531 155 486 125 l 538 145 l 534 136 q 443 105 490 105 q 404 120 421 105 q 184 1 260 1 q 139 13 160 1 q 115 50 115 27 q 130 105 115 68 z "},"x":{"ha":434,"x_min":-214,"x_max":298,"o":"m 284 237 q 240 189 284 189 q 213 216 213 189 q 250 252 213 252 q 259 250 254 252 q 238 260 250 260 q 104 165 199 260 q 8 33 8 71 q 55 15 8 15 q 179 64 101 15 q 290 148 239 102 l 298 138 q 193 48 294 103 q 54 -5 96 -5 q -25 61 -25 -5 q -160 0 -122 0 q -214 41 -214 0 q -165 98 -214 98 q -137 66 -137 98 q -193 33 -137 23 q -166 20 -182 20 q -15 113 -118 20 q 89 251 89 205 q 72 262 89 262 q -144 130 3 262 l -153 140 q -54 226 -153 168 q 77 282 43 282 q 112 266 97 282 q 127 230 127 250 q 231 277 193 277 q 284 237 284 277 z "},"y":{"ha":533,"x_min":-350,"x_max":402,"o":"m 326 284 l 402 284 l 147 -6 q 332 102 231 23 q 386 146 349 119 l 393 147 l 398 140 l 396 134 q 263 35 365 88 q 119 -41 121 -40 q -1 -152 85 -64 q -144 -281 -93 -243 q -298 -344 -230 -344 q -350 -294 -350 -344 q -199 -139 -350 -214 q 24 -50 -159 -119 l 147 95 q -54 0 16 0 q -92 18 -76 0 q -108 58 -108 35 q -35 176 -108 100 q 42 260 41 253 l 33 267 q -67 200 3 267 q -145 130 -140 130 l -154 136 q -70 223 -152 161 q 40 284 12 284 q 79 235 79 284 q 7 119 79 197 q -65 28 -65 41 q -50 19 -65 19 q 326 284 62 19 m -300 -327 q -129 -235 -219 -327 q 1 -75 -123 -229 q -197 -157 -154 -135 q -332 -296 -332 -226 q -300 -327 -332 -327 z "},"z":{"ha":424,"x_min":-449,"x_max":286,"o":"m 106 203 l -100 61 q 24 92 -7 92 q 83 39 73 92 l 278 149 l 286 140 q 193 76 278 123 q 83 18 138 47 q -105 -228 41 -119 q -393 -336 -252 -336 q -449 -298 -449 -336 q -260 -127 -449 -233 q -5 -1 -132 -64 q 15 47 15 35 q -14 63 15 63 q -90 43 -42 63 q -159 5 -134 24 l -214 5 l 66 199 l 44 197 q -15 208 22 195 q -143 130 -73 170 l -152 138 q -28 221 -150 143 q -32 237 -32 237 q 10 283 -32 283 q 44 252 44 283 q 18 218 44 227 q 47 213 26 213 q 148 254 96 213 q 235 295 200 295 q 250 280 250 295 q 191 227 250 252 q 106 203 151 210 m -429 -296 q -393 -322 -429 -322 q -180 -214 -300 -322 q -15 -26 -90 -135 q -429 -296 -429 -214 z "},"{":{"ha":557,"x_min":-88,"x_max":361,"o":"m 361 818 q 195 759 237 814 q 163 616 163 718 q 164 570 163 602 q 165 522 165 539 q 114 363 165 408 q -40 299 82 336 q 111 235 66 277 q 159 127 151 198 q 161 -39 161 103 q 212 -181 161 -139 q 359 -219 257 -219 l 359 -246 q 181 -206 231 -234 q 119 -112 131 -178 q 111 72 111 -71 q 66 228 111 184 q -88 283 26 265 l -88 314 q 66 368 31 334 q 109 526 109 408 q 133 755 109 704 q 334 842 176 846 l 361 842 l 361 818 z "},"|":{"ha":115,"x_min":-97,"x_max":-77,"o":"m -97 -231 l -97 833 l -77 833 l -77 -231 l -97 -231 z "},"}":{"ha":557,"x_min":-85,"x_max":364,"o":"m 364 314 l 364 283 q 216 233 258 267 q 170 138 177 202 q 168 -19 168 119 q 105 -199 168 -153 q -84 -246 60 -233 l -84 -219 q 65 -182 20 -219 q 111 -79 103 -150 q 113 68 113 -58 q 160 231 113 182 q 315 299 202 275 q 166 360 203 333 q 117 447 125 389 q 114 613 114 473 q 68 767 114 720 q -85 818 22 814 l -85 842 l -59 842 q 138 763 93 846 q 166 542 166 709 q 204 373 166 414 q 364 314 239 335 z "},"~":{"ha":243,"x_min":-12,"x_max":248,"o":"m 248 416 q 161 330 212 330 q 112 344 142 330 q 67 357 81 357 q 1 314 28 357 l -12 314 q 83 406 36 406 q 130 389 99 406 q 176 371 160 371 q 234 416 206 371 l 248 416 z "},"":{"ha":1407,"x_min":94,"x_max":1957,"o":"m 1040 66 q 1158 107 1095 78 q 1270 160 1214 134 l 1276 161 l 1281 153 l 1278 145 q 1025 46 1157 62 l 998 0 l 906 0 l 940 54 q 823 92 867 71 q 720 160 785 112 q 298 0 490 0 q 169 28 229 0 q 94 126 94 64 q 152 204 94 204 q 193 161 193 204 q 144 108 193 108 q 121 117 132 108 q 189 38 120 67 q 301 16 242 16 q 706 170 486 16 q 553 488 553 332 q 601 652 553 585 q 749 727 655 727 q 1036 455 935 727 q 1271 664 1154 559 q 1546 869 1426 798 q 1832 970 1704 962 q 1427 550 1712 894 q 1040 66 1421 545 m 1025 170 q 1394 595 1210 382 q 1777 948 1675 907 q 1389 736 1625 920 q 1040 437 1351 707 q 1052 319 1052 365 q 1025 170 1052 245 m 719 182 q 873 309 863 301 q 1021 443 960 382 q 767 691 953 691 q 626 626 678 691 q 578 474 578 566 q 719 182 578 332 m 952 70 q 1034 332 1034 189 q 1025 422 1034 376 q 735 172 947 350 q 952 70 836 92 m 1782 1113 q 1815 1076 1815 1113 q 1782 1040 1815 1040 q 1757 1051 1768 1040 q 1746 1076 1746 1062 q 1757 1101 1746 1090 q 1782 1113 1767 1113 m 1923 1113 q 1957 1073 1957 1113 q 1923 1040 1957 1040 q 1887 1076 1887 1040 q 1923 1113 1887 1113 z "},"":{"ha":1407,"x_min":94,"x_max":1969,"o":"m 1040 66 q 1158 107 1095 78 q 1270 160 1214 134 l 1276 161 l 1281 153 l 1278 145 q 1025 46 1157 62 l 998 0 l 906 0 l 940 54 q 823 92 867 71 q 720 160 785 112 q 298 0 490 0 q 169 28 229 0 q 94 126 94 64 q 152 204 94 204 q 193 161 193 204 q 144 108 193 108 q 121 117 132 108 q 189 38 120 67 q 301 16 242 16 q 706 170 486 16 q 553 488 553 332 q 601 652 553 585 q 749 727 655 727 q 1036 455 935 727 q 1271 664 1154 559 q 1546 869 1426 798 q 1832 970 1704 962 q 1427 550 1712 894 q 1040 66 1421 545 m 1025 170 q 1394 595 1210 382 q 1777 948 1675 907 q 1389 736 1625 920 q 1040 437 1351 707 q 1052 319 1052 365 q 1025 170 1052 245 m 719 182 q 873 309 863 301 q 1021 443 960 382 q 767 691 953 691 q 626 626 678 691 q 578 474 578 566 q 719 182 578 332 m 952 70 q 1034 332 1034 189 q 1025 422 1034 376 q 735 172 947 350 q 952 70 836 92 m 1969 1108 q 1949 1060 1969 1079 q 1900 1040 1929 1040 q 1851 1060 1871 1040 q 1832 1108 1832 1079 q 1852 1157 1832 1137 q 1901 1177 1872 1177 q 1948 1156 1928 1177 q 1969 1108 1969 1136 m 1855 1108 q 1900 1064 1855 1064 q 1944 1108 1944 1064 q 1902 1151 1944 1151 q 1855 1108 1855 1151 z "},"":{"ha":1046,"x_min":117,"x_max":1299,"o":"m 1282 916 q 1202 958 1282 958 q 840 806 1043 958 q 541 533 732 725 q 877 616 727 555 q 1282 916 1282 781 m 347 -54 q 389 -40 367 -40 q 443 -98 443 -40 q 391 -205 443 -159 q 277 -252 339 -252 q 256 -241 270 -252 q 241 -224 241 -231 q 252 -199 241 -206 q 271 -188 258 -187 l 284 -201 l 277 -209 l 258 -212 q 293 -235 256 -235 q 374 -179 337 -235 q 406 -81 406 -128 q 382 -54 406 -54 q 320 -80 350 -54 q 284 -110 287 -109 l 284 -104 q 364 5 317 -73 q 270 54 307 20 q 226 149 226 95 q 402 498 226 305 q 358 494 381 494 q 197 545 269 494 q 117 686 117 601 q 311 959 117 857 q 657 1040 473 1044 l 685 1038 l 693 1029 l 687 1021 q 157 787 286 1021 q 134 690 134 744 q 212 557 134 609 q 364 512 279 512 q 427 519 395 512 q 789 806 581 670 q 1201 977 1050 977 q 1299 916 1299 977 q 884 602 1299 764 q 515 508 748 549 q 363 323 446 447 q 269 113 269 183 q 328 37 269 64 q 429 16 374 16 q 695 99 547 16 q 861 300 861 193 q 830 353 861 334 q 768 369 804 369 q 565 300 676 369 q 404 170 486 250 q 336 100 370 135 l 329 107 l 332 114 q 526 295 383 205 q 773 385 671 385 q 845 364 816 385 q 878 299 878 340 q 712 85 878 183 q 422 -3 561 -3 q 383 0 401 -3 l 347 -54 z "},"":{"ha":991,"x_min":104,"x_max":1194,"o":"m 224 774 q 488 612 224 612 q 610 627 557 612 l 610 637 q 775 887 607 777 q 1074 987 926 987 q 1149 970 1118 987 q 1187 907 1187 948 q 958 711 1187 809 q 637 615 781 636 q 653 569 638 589 l 684 570 q 785 523 785 574 q 743 495 785 495 q 647 551 706 495 q 393 459 519 543 q 203 264 273 379 q 155 132 155 182 q 227 45 155 75 q 348 25 279 25 q 621 90 483 25 q 789 290 789 170 q 753 345 789 326 q 686 360 725 360 q 449 281 576 360 q 256 115 340 214 l 251 113 l 242 121 l 243 126 q 441 298 300 218 q 688 378 581 378 q 767 358 732 378 q 808 293 808 334 q 635 75 808 161 q 346 5 493 5 q 184 42 248 5 q 104 180 104 88 q 293 458 104 344 q 632 569 448 552 l 612 610 q 483 597 555 597 q 206 774 206 597 q 372 988 206 911 q 657 1046 506 1050 l 680 1046 l 690 1037 l 681 1028 q 515 1007 597 1018 q 355 962 414 993 q 238 845 276 922 q 224 774 224 815 m 747 513 q 765 525 765 513 q 689 551 765 553 l 676 551 q 747 513 718 513 m 1169 907 q 1139 954 1169 937 q 1083 968 1115 968 q 823 854 966 968 q 638 631 687 747 q 945 727 779 657 q 1169 907 1169 821 m 1136 1141 q 1174 1197 1136 1197 q 1194 1171 1194 1197 q 1143 1090 1194 1135 q 1059 1034 1103 1055 l 1055 1040 q 1136 1141 1114 1080 z "},"":{"ha":1314,"x_min":94,"x_max":2111,"o":"m 943 7 l 939 12 l 939 18 q 975 106 957 62 q 1002 200 996 157 q 1058 465 1025 356 q 1154 717 1086 561 l 846 347 q 280 -6 553 -6 q 159 22 210 -6 q 94 121 94 56 q 110 171 94 150 q 153 193 125 193 q 187 180 172 193 q 202 149 202 168 q 148 104 202 104 q 112 129 120 104 q 281 10 117 10 q 833 360 541 10 q 1261 884 1038 606 l 1267 887 l 1276 881 l 1274 876 q 1216 754 1245 814 q 1171 625 1183 685 q 1115 379 1136 451 q 1030 153 1090 294 l 1406 616 q 1645 838 1515 751 q 1947 943 1803 943 q 2051 920 2003 943 q 2111 840 2111 891 q 2095 803 2111 819 q 2058 788 2079 788 q 2024 831 2024 788 q 2076 871 2024 861 q 1950 926 2050 926 q 1651 823 1807 926 q 1416 604 1524 738 q 1179 313 1297 459 q 954 14 1042 143 l 943 7 m 943 7 l 939 12 l 939 18 q 975 106 957 62 q 1002 200 996 157 q 1058 465 1025 356 q 1154 717 1086 561 l 846 347 q 280 -6 553 -6 q 159 22 210 -6 q 94 121 94 56 q 110 171 94 150 q 153 193 125 193 q 187 180 172 193 q 202 149 202 168 q 148 104 202 104 q 112 129 120 104 q 281 10 117 10 q 833 360 541 10 q 1261 884 1038 606 l 1267 887 l 1276 881 l 1274 876 q 1216 754 1245 814 q 1171 625 1183 685 q 1115 379 1136 451 q 1030 153 1090 294 l 1406 616 q 1645 838 1515 751 q 1947 943 1803 943 q 2051 920 2003 943 q 2111 840 2111 891 q 2095 803 2111 819 q 2058 788 2079 788 q 2024 831 2024 788 q 2076 871 2024 861 q 1950 926 2050 926 q 1651 823 1807 926 q 1416 604 1524 738 q 1179 313 1297 459 q 954 14 1042 143 l 943 7 m 1678 1042 q 1586 956 1645 956 q 1542 970 1571 956 q 1499 985 1514 985 q 1432 939 1460 985 l 1419 939 q 1515 1031 1465 1031 q 1561 1014 1531 1031 q 1607 998 1592 998 q 1666 1042 1638 998 l 1678 1042 z "},"":{"ha":882,"x_min":114,"x_max":1269,"o":"m 1249 913 q 1183 1004 1249 975 q 1062 1027 1133 1027 q 298 454 682 1027 q 159 123 159 248 q 203 48 159 73 q 291 27 238 27 q 608 174 429 27 q 893 500 773 309 q 1017 835 1017 696 q 992 908 1017 878 q 924 942 965 942 q 716 828 827 942 q 605 617 605 715 q 624 565 605 587 q 673 543 642 543 q 852 654 771 543 q 950 857 912 736 l 958 863 l 966 852 q 865 645 966 762 q 669 524 760 524 q 608 551 631 524 q 586 618 586 578 q 692 850 586 741 q 920 960 799 960 q 1004 919 972 960 q 1033 829 1033 882 q 906 486 1033 686 q 614 156 783 293 q 288 7 431 7 q 159 59 205 7 q 114 194 114 109 q 282 576 114 369 q 661 904 437 768 q 1062 1043 890 1043 q 1195 1017 1141 1043 q 1265 911 1265 983 q 1198 793 1265 842 q 1064 751 1135 748 l 1055 759 q 1160 795 1107 777 q 1249 913 1249 831 m 1092 1198 q 1127 1162 1127 1198 q 1092 1127 1127 1127 q 1068 1138 1079 1127 q 1057 1162 1057 1149 q 1067 1187 1057 1176 q 1092 1198 1078 1198 m 1234 1198 q 1269 1162 1269 1198 q 1234 1127 1269 1127 q 1209 1138 1220 1127 q 1198 1162 1198 1148 q 1234 1198 1198 1198 z "},"":{"ha":1050,"x_min":106,"x_max":1331,"o":"m 1254 880 l 1331 880 q 940 441 1135 661 q 602 33 602 58 q 633 16 602 16 q 805 89 701 16 q 928 170 917 168 l 938 162 q 800 62 934 131 q 629 -3 670 -3 q 576 46 576 -3 q 618 156 576 92 q 692 254 633 178 q 477 94 602 170 q 237 -2 322 -2 q 152 54 152 -2 q 317 308 152 136 q 624 611 471 459 q 789 864 789 783 q 718 946 789 919 q 602 966 667 966 q 305 895 454 966 q 125 677 125 809 q 250 591 125 591 q 505 678 360 591 q 719 850 629 753 l 726 854 l 734 845 l 732 838 q 522 656 682 745 q 257 570 366 570 q 157 593 198 570 q 106 675 106 621 q 293 909 106 817 q 605 984 448 984 q 745 955 690 984 q 814 840 814 918 q 650 541 814 731 q 345 231 573 452 q 180 39 180 72 q 199 23 180 30 q 224 17 213 17 q 595 201 365 17 q 985 578 764 338 q 1254 880 1120 729 m 977 1037 q 1011 1002 1011 1037 q 977 966 1011 966 q 952 977 964 966 q 941 1002 941 988 q 952 1026 941 1015 q 977 1037 964 1037 m 1118 1037 q 1152 1002 1152 1037 q 1118 966 1152 966 q 1083 1002 1083 966 q 1118 1037 1083 1037 z "},"":{"ha":477,"x_min":-174,"x_max":335,"o":"m 255 449 q 294 505 255 505 q 314 480 314 505 q 263 399 314 444 q 180 342 223 363 l 176 348 q 255 449 232 387 m -107 16 q 54 92 -46 16 q 157 230 157 172 q 117 264 157 264 q -34 176 68 264 q -136 41 -136 88 q -107 16 -136 16 m -174 68 q -70 218 -174 147 q 109 284 26 284 q 177 232 177 284 q 172 204 177 220 q 243 284 189 221 l 321 284 q 202 154 262 219 q 104 31 106 46 l 115 22 q 237 83 150 20 q 327 146 324 146 l 335 136 q 232 56 334 113 q 102 -1 132 -1 q 62 42 62 -1 q 68 77 62 60 q -102 -2 -33 -2 q -174 68 -174 -2 z "},"":{"ha":477,"x_min":-174,"x_max":335,"o":"m 197 340 q 115 397 155 361 q 63 476 63 441 q 88 504 63 504 q 115 480 105 504 q 121 448 117 469 q 200 347 136 394 l 197 340 m -107 16 q 54 92 -46 16 q 157 230 157 172 q 117 264 157 264 q -34 176 68 264 q -136 41 -136 88 q -107 16 -136 16 m -174 68 q -70 218 -174 147 q 109 284 26 284 q 177 232 177 284 q 172 204 177 220 q 243 284 189 221 l 321 284 q 202 154 262 219 q 104 31 106 46 l 115 22 q 237 83 150 20 q 327 146 324 146 l 335 136 q 232 56 334 113 q 102 -1 132 -1 q 62 42 62 -1 q 68 77 62 60 q -102 -2 -33 -2 q -174 68 -174 -2 z "},"":{"ha":477,"x_min":-174,"x_max":336,"o":"m -107 16 q 54 92 -46 16 q 157 230 157 172 q 117 264 157 264 q -34 176 68 264 q -136 41 -136 88 q -107 16 -136 16 m -174 68 q -70 218 -174 147 q 109 284 26 284 q 177 232 177 284 q 172 204 177 220 q 243 284 189 221 l 321 284 q 203 154 262 219 q 104 32 106 45 l 113 26 q 327 151 178 23 l 336 141 q 235 58 335 114 q 103 3 138 3 q 62 42 62 3 q 68 77 62 60 q -102 -2 -33 -2 q -174 68 -174 -2 m 264 503 q 323 348 279 409 l 314 340 q 246 439 275 372 q 92 347 160 368 l 92 351 q 254 503 178 413 l 264 503 z "},"":{"ha":477,"x_min":-174,"x_max":335,"o":"m 283 414 q 318 376 318 414 q 283 340 318 340 q 248 376 248 340 q 283 414 248 414 m 182 414 q 216 376 216 414 q 182 340 216 340 q 147 376 147 340 q 182 414 147 414 m -107 16 q 54 92 -46 16 q 157 230 157 172 q 117 264 157 264 q -34 176 68 264 q -136 41 -136 88 q -107 16 -136 16 m -174 68 q -70 218 -174 147 q 109 284 26 284 q 177 232 177 284 q 172 204 177 220 q 243 284 189 221 l 321 284 q 202 154 262 219 q 104 31 106 46 l 115 22 q 237 83 150 20 q 327 146 324 146 l 335 136 q 232 56 334 113 q 102 -1 132 -1 q 62 42 62 -1 q 68 77 62 60 q -102 -2 -33 -2 q -174 68 -174 -2 z "},"":{"ha":477,"x_min":-174,"x_max":367,"o":"m 367 428 q 274 340 331 340 q 231 355 259 340 q 187 370 202 370 q 121 326 151 370 l 108 326 q 203 418 155 418 q 249 400 218 418 q 296 382 280 382 q 353 428 328 382 l 367 428 m -107 16 q 54 92 -46 16 q 157 230 157 172 q 117 264 157 264 q -34 176 68 264 q -136 41 -136 88 q -107 16 -136 16 m -174 68 q -70 218 -174 147 q 109 284 26 284 q 177 232 177 284 q 172 204 177 220 q 243 284 189 221 l 321 284 q 202 154 262 219 q 104 31 106 46 l 115 22 q 237 83 150 20 q 327 146 324 146 l 335 136 q 232 56 334 113 q 102 -1 132 -1 q 62 42 62 -1 q 68 77 62 60 q -102 -2 -33 -2 q -174 68 -174 -2 z "},"":{"ha":477,"x_min":-174,"x_max":335,"o":"m 305 409 q 284 360 305 380 q 235 341 264 341 q 187 361 206 341 q 168 409 168 380 q 188 457 168 437 q 236 477 208 477 q 284 457 264 477 q 305 409 305 437 m 191 409 q 235 365 191 365 q 280 409 280 365 q 236 453 280 453 q 191 409 191 453 m -107 16 q 54 92 -46 16 q 157 230 157 172 q 117 264 157 264 q -34 176 68 264 q -136 41 -136 88 q -107 16 -136 16 m -174 68 q -70 218 -174 147 q 109 284 26 284 q 177 232 177 284 q 172 204 177 220 q 243 284 189 221 l 321 284 q 202 154 262 219 q 104 31 106 46 l 115 22 q 237 83 150 20 q 327 146 324 146 l 335 136 q 232 56 334 113 q 102 -1 132 -1 q 62 42 62 -1 q 68 77 62 60 q -102 -2 -33 -2 q -174 68 -174 -2 z "},"":{"ha":316,"x_min":-228,"x_max":179,"o":"m -174 68 q -80 214 -174 142 q 84 283 9 283 q 147 241 147 283 q 133 206 147 221 q 98 191 118 191 q 68 216 68 191 q 106 250 68 250 q 127 243 115 250 q 92 264 114 264 q -48 179 39 264 q -136 41 -136 94 q -98 18 -136 18 q 62 81 -37 18 q 170 148 168 148 l 179 140 q 52 52 179 110 q -111 -1 -71 -3 l -137 -40 q -102 -30 -120 -30 q -56 -79 -56 -30 q -98 -169 -56 -129 q -191 -209 -140 -209 q -227 -186 -214 -209 q -220 -165 -228 -176 q -202 -155 -212 -155 l -195 -160 l -191 -168 q -212 -176 -201 -181 q -190 -197 -216 -197 q -116 -151 -148 -197 q -86 -64 -86 -109 q -108 -40 -86 -40 q -178 -80 -151 -40 l -191 -89 l -191 -83 q -128 0 -163 -56 q -174 68 -174 14 z "},"":{"ha":307,"x_min":-178,"x_max":225,"o":"m 206 504 q 225 479 225 504 q 175 397 225 443 q 92 340 135 361 l 87 347 q 164 448 135 380 q 206 504 187 504 m 163 149 l 170 138 l 167 132 q -89 -2 -18 -2 q -178 66 -178 -2 q -85 214 -178 140 q 79 286 4 286 q 121 250 121 286 q 56 178 121 210 q -64 126 -4 153 q -130 43 -130 92 q -99 19 -130 19 q 63 84 -35 19 q 163 149 161 149 m -52 159 q 101 250 101 209 q 86 265 101 265 q -52 159 34 265 z "},"":{"ha":307,"x_min":-178,"x_max":170,"o":"m 94 340 q 12 397 53 361 q -40 475 -40 442 q -14 504 -40 504 q 14 480 3 504 q 19 448 15 469 q 99 347 35 391 l 94 340 m 163 149 l 170 138 l 167 132 q -89 -2 -18 -2 q -178 66 -178 -2 q -85 214 -178 140 q 79 286 4 286 q 121 250 121 286 q 56 178 121 210 q -64 126 -4 153 q -130 43 -130 92 q -99 19 -130 19 q 63 84 -35 19 q 163 149 161 149 m -52 159 q 101 250 101 209 q 86 265 101 265 q -52 159 34 265 z "},"":{"ha":307,"x_min":-178,"x_max":216,"o":"m 159 504 q 216 350 174 411 l 208 342 q 142 440 170 374 q -14 348 51 368 l -14 353 q 149 504 70 412 l 159 504 m 163 149 l 170 138 l 167 132 q -89 -2 -18 -2 q -178 66 -178 -2 q -85 214 -178 140 q 79 286 4 286 q 121 250 121 286 q 56 178 121 210 q -64 126 -4 153 q -130 43 -130 92 q -99 19 -130 19 q 63 84 -35 19 q 163 149 161 149 m -52 159 q 101 250 101 209 q 86 265 101 265 q -52 159 34 265 z "},"":{"ha":307,"x_min":-178,"x_max":211,"o":"m 35 414 q 69 376 69 414 q 35 340 69 340 q 11 352 22 340 q 0 376 0 363 q 11 402 0 391 q 35 414 22 414 m 177 414 q 211 376 211 414 q 177 340 211 340 q 142 376 142 340 q 177 414 142 414 m 163 149 l 170 138 l 167 132 q -89 -2 -18 -2 q -178 66 -178 -2 q -85 214 -178 140 q 79 286 4 286 q 121 250 121 286 q 56 178 121 210 q -64 126 -4 153 q -130 43 -130 92 q -99 19 -130 19 q 63 84 -35 19 q 163 149 161 149 m -52 159 q 101 250 101 209 q 86 265 101 265 q -52 159 34 265 z "},"":{"ha":285,"x_min":-155,"x_max":225,"o":"m 206 504 q 225 479 225 504 q 175 397 225 443 q 92 340 135 361 l 87 347 q 164 448 135 380 q 206 504 187 504 m 111 284 q -7 153 52 219 q -105 31 -104 45 l -94 23 q 42 83 -50 21 q 140 148 138 148 l 146 138 q 33 56 145 114 q -108 -1 -75 -1 q -149 43 -149 -1 q -123 115 -149 77 q -74 176 -121 118 q -148 131 -102 155 l -155 140 l -151 148 q 34 284 -37 223 l 111 284 z "},"":{"ha":285,"x_min":-155,"x_max":146,"o":"m 88 340 q 6 397 47 361 q -45 475 -45 442 q -19 504 -45 504 q 7 480 -3 504 q 14 448 9 469 q 93 347 29 391 l 88 340 m 111 284 q -7 153 52 219 q -105 31 -104 45 l -94 23 q 42 83 -50 21 q 140 148 138 148 l 146 138 q 33 56 145 114 q -108 -1 -75 -1 q -149 43 -149 -1 q -123 115 -149 77 q -74 176 -121 118 q -148 131 -102 155 l -155 140 l -151 148 q 34 284 -37 223 l 111 284 z "},"":{"ha":285,"x_min":-155,"x_max":200,"o":"m 142 503 q 200 348 157 409 l 191 340 q 124 439 153 372 q -31 347 33 366 l -31 351 q 131 503 56 413 l 142 503 m 111 284 q -7 153 52 219 q -105 31 -104 45 l -94 23 q 42 83 -50 21 q 140 148 138 148 l 146 138 q 33 56 145 114 q -108 -1 -75 -1 q -149 43 -149 -1 q -123 115 -149 77 q -74 176 -121 118 q -148 131 -102 155 l -155 140 l -151 148 q 34 284 -37 223 l 111 284 z "},"":{"ha":285,"x_min":-155,"x_max":197,"o":"m 20 414 q 56 376 56 414 q 20 340 56 340 q -4 352 7 340 q -15 376 -15 363 q -4 402 -15 391 q 20 414 7 414 m 162 414 q 197 376 197 414 q 162 340 197 340 q 127 376 127 340 q 162 414 127 414 m 111 284 q -7 153 52 219 q -105 31 -104 45 l -94 23 q 42 83 -50 21 q 140 148 138 148 l 146 138 q 33 56 145 114 q -108 -1 -75 -1 q -149 43 -149 -1 q -123 115 -149 77 q -74 176 -121 118 q -148 131 -102 155 l -155 140 l -151 148 q 34 284 -37 223 l 111 284 z "},"":{"ha":593,"x_min":-155,"x_max":454,"o":"m 80 259 l 72 265 q -148 132 31 266 l -155 140 l -152 146 q -39 231 -100 191 q 83 283 43 283 q 117 248 117 283 q 90 170 117 215 q 302 284 233 284 q 339 240 339 284 q 270 115 339 187 q 201 32 201 43 q 214 23 201 23 q 353 84 263 23 q 449 147 446 146 l 454 140 q 342 54 453 112 q 200 -1 237 -1 q 158 46 158 -1 q 220 161 158 87 q 314 264 267 212 q 302 267 302 267 q -53 0 189 267 l -130 0 q 80 259 -27 121 m 367 428 q 274 340 331 340 q 231 355 259 340 q 187 370 202 370 q 121 326 151 370 l 108 326 q 203 418 155 418 q 249 400 218 418 q 296 382 280 382 q 353 428 328 382 l 367 428 z "},"":{"ha":356,"x_min":-177,"x_max":267,"o":"m 199 148 l 205 139 l 202 132 q 103 110 168 109 q -102 -3 -20 -3 q -177 68 -177 -3 q -73 218 -177 146 q 104 284 23 284 q 150 272 130 284 q 174 233 174 257 q 122 130 174 191 q 199 148 148 138 m -111 16 q 50 92 -49 16 q 154 230 154 172 q 114 264 154 264 q -37 176 65 264 q -140 41 -140 88 q -111 16 -140 16 m 247 504 q 267 479 267 504 q 216 397 267 443 q 133 340 176 361 l 128 347 q 203 448 176 380 q 247 504 227 504 z "},"":{"ha":356,"x_min":-177,"x_max":205,"o":"m 199 148 l 205 139 l 202 132 q 103 110 168 109 q -102 -3 -20 -3 q -177 68 -177 -3 q -73 218 -177 146 q 104 284 23 284 q 150 272 130 284 q 174 233 174 257 q 122 130 174 191 q 199 148 148 138 m -111 16 q 50 92 -49 16 q 154 230 154 172 q 114 264 154 264 q -37 176 65 264 q -140 41 -140 88 q -111 16 -140 16 m 156 340 q 74 397 115 360 q 22 475 22 442 q 49 504 22 504 q 74 480 64 504 q 79 448 75 469 q 161 347 96 392 l 156 340 z "},"":{"ha":356,"x_min":-177,"x_max":262,"o":"m 199 148 l 205 139 l 202 132 q 103 110 168 109 q -102 -3 -20 -3 q -177 68 -177 -3 q -73 218 -177 146 q 104 284 23 284 q 150 272 130 284 q 174 233 174 257 q 122 130 174 191 q 199 148 148 138 m -111 16 q 50 92 -49 16 q 154 230 154 172 q 114 264 154 264 q -37 176 65 264 q -140 41 -140 88 q -111 16 -140 16 m 203 503 q 262 348 219 409 l 254 340 q 187 439 213 373 q 33 347 98 368 l 33 351 q 195 498 128 420 l 203 503 z "},"":{"ha":356,"x_min":-177,"x_max":255,"o":"m 199 148 l 205 139 l 202 132 q 103 110 168 109 q -102 -3 -20 -3 q -177 68 -177 -3 q -73 218 -177 146 q 104 284 23 284 q 150 272 130 284 q 174 233 174 257 q 122 130 174 191 q 199 148 148 138 m -111 16 q 50 92 -49 16 q 154 230 154 172 q 114 264 154 264 q -37 176 65 264 q -140 41 -140 88 q -111 16 -140 16 m 78 414 q 113 376 113 414 q 78 340 113 340 q 55 352 65 340 q 44 376 44 363 q 54 402 44 390 q 78 414 64 414 m 220 414 q 255 376 255 414 q 220 340 255 340 q 186 376 186 340 q 220 414 186 414 z "},"":{"ha":356,"x_min":-177,"x_max":277,"o":"m -111 16 q 50 92 -49 16 q 154 230 154 172 q 114 264 154 264 q -37 176 65 264 q -140 41 -140 88 q -111 16 -140 16 m 199 148 l 205 139 l 202 132 q 103 110 168 109 q -102 -3 -20 -3 q -177 68 -177 -3 q -73 218 -177 146 q 104 284 23 284 q 150 272 130 284 q 174 233 174 257 q 122 130 174 191 q 199 148 148 138 m 277 428 q 184 341 241 341 q 140 355 169 341 q 96 370 112 370 q 31 323 60 370 l 18 326 q 112 418 65 418 q 159 400 128 418 q 205 382 189 382 q 264 428 236 382 l 277 428 z "},"":{"ha":503,"x_min":-155,"x_max":365,"o":"m 297 504 q 317 479 317 504 q 266 397 317 443 q 182 340 227 362 l 178 347 q 254 450 225 381 q 297 504 277 504 m -146 131 l -155 141 q -76 201 -153 147 q 26 284 7 261 l 117 284 q -3 152 57 218 q -102 28 -100 42 l -92 22 q 241 284 4 18 l 333 284 q 214 153 273 218 q 115 30 115 43 q 130 20 115 20 q 360 149 212 20 l 365 140 l 363 134 q 115 -1 217 -1 q 73 39 73 -1 q 99 114 73 68 q -113 -4 -47 -4 q -151 40 -151 -4 q -63 184 -151 76 q -146 131 -98 159 z "},"":{"ha":503,"x_min":-155,"x_max":365,"o":"m 189 340 q 106 396 147 360 q 54 475 54 441 q 79 504 54 504 q 106 480 96 504 q 112 448 108 469 q 193 347 128 392 l 189 340 m -146 131 l -155 141 q -76 201 -153 147 q 26 284 7 261 l 117 284 q -3 152 57 218 q -102 28 -100 42 l -92 22 q 241 284 4 18 l 333 284 q 214 153 273 218 q 115 30 115 43 q 130 20 115 20 q 360 149 212 20 l 365 140 l 363 134 q 115 -1 217 -1 q 73 39 73 -1 q 99 114 73 68 q -113 -4 -47 -4 q -151 40 -151 -4 q -63 184 -151 76 q -146 131 -98 159 z "},"":{"ha":503,"x_min":-155,"x_max":365,"o":"m 262 500 q 321 347 277 408 l 313 339 q 245 437 273 370 q 90 345 159 366 l 90 350 q 252 496 186 418 l 262 500 m -146 131 l -155 141 q -76 201 -153 147 q 26 284 7 261 l 117 284 q -3 152 57 218 q -102 28 -100 42 l -92 22 q 241 284 4 18 l 333 284 q 214 153 273 218 q 115 30 115 43 q 130 20 115 20 q 360 149 212 20 l 365 140 l 363 134 q 115 -1 217 -1 q 73 39 73 -1 q 99 114 73 68 q -113 -4 -47 -4 q -151 40 -151 -4 q -63 184 -151 76 q -146 131 -98 159 z "},"":{"ha":503,"x_min":-155,"x_max":365,"o":"m 122 414 q 157 376 157 414 q 122 340 157 340 q 98 352 109 340 q 87 376 87 363 q 98 402 87 391 q 122 414 109 414 m 264 414 q 299 376 299 414 q 264 340 299 340 q 229 376 229 340 q 264 414 229 414 m -146 131 l -155 141 q -76 201 -153 147 q 26 284 7 261 l 117 284 q -3 152 57 218 q -102 28 -100 42 l -92 22 q 241 284 4 18 l 333 284 q 214 153 273 218 q 115 30 115 43 q 130 20 115 20 q 360 149 212 20 l 365 140 l 363 134 q 115 -1 217 -1 q 73 39 73 -1 q 99 114 73 68 q -113 -4 -47 -4 q -151 40 -151 -4 q -63 184 -151 76 q -146 131 -98 159 z "},"":{"ha":1608,"x_min":130,"x_max":1929,"o":"m 130 140 q 146 183 130 165 q 187 200 162 200 q 217 185 204 200 q 230 153 230 170 q 220 124 230 138 q 195 108 208 108 q 153 121 172 108 q 368 23 174 23 q 624 99 519 23 q 806 299 698 153 l 962 511 q 1162 728 1020 589 q 1382 917 1310 872 l 1391 919 l 1396 913 l 1394 905 q 1323 838 1371 879 q 1251 771 1272 793 q 1013 439 1177 691 q 762 138 873 227 q 364 7 595 7 q 216 31 276 7 q 130 140 130 65 m 990 966 q 680 903 826 966 q 493 680 493 822 q 551 595 493 623 q 656 572 595 572 q 867 628 749 572 q 1004 774 1004 693 q 911 850 1004 850 q 602 714 753 850 q 535 648 581 690 l 529 646 l 524 652 l 526 659 q 695 800 561 730 q 907 866 823 866 q 982 846 951 866 q 1019 781 1019 823 q 881 615 1019 686 q 656 555 762 555 q 537 583 587 555 q 476 682 476 616 q 507 784 476 740 q 860 977 614 935 q 1279 996 970 996 q 1511 995 1356 996 q 1743 994 1666 994 q 1836 1007 1805 994 q 1914 1058 1859 1017 l 1921 1061 l 1929 1051 l 1926 1044 q 1556 924 1813 924 q 1273 945 1461 924 q 990 966 1084 966 m 1285 387 q 1777 748 1777 612 q 1742 781 1777 781 q 1503 617 1672 781 q 1285 387 1450 565 m 741 41 q 728 50 728 39 q 771 83 728 55 q 976 202 798 100 q 1168 329 1109 279 q 1445 605 1307 467 q 1746 799 1647 799 q 1780 784 1766 799 q 1794 748 1794 768 q 1270 357 1794 610 l 1108 170 q 1318 284 1249 284 q 1357 240 1357 284 q 1289 116 1357 190 q 1219 31 1220 42 l 1232 23 q 1364 79 1286 21 q 1466 147 1452 144 l 1471 140 q 1360 53 1469 109 q 1218 -1 1257 -1 q 1175 46 1175 -1 q 1247 169 1175 90 q 1320 257 1319 249 l 1313 267 q 965 0 1204 269 l 880 0 l 1135 274 q 935 163 1035 218 q 741 41 817 96 z "},"":{"ha":218,"x_min":-18,"x_max":235,"o":"m -18 323 q 26 388 -18 361 q 102 422 45 401 q 95 452 95 441 q 130 511 95 485 q 198 538 164 538 q 223 527 212 538 q 235 503 235 517 q 146 427 235 462 q 153 392 153 406 q 114 319 153 353 q 36 285 75 285 q -18 323 -18 285 m 191 528 q 146 510 168 528 q 125 471 125 493 q 140 435 125 460 q 225 503 225 465 q 191 528 225 528 m 37 295 q 95 317 67 295 q 123 369 123 339 q 109 412 123 385 q 36 382 70 403 q -7 324 -7 356 q 37 295 -7 295 z "},"":{"ha":297,"x_min":-53,"x_max":340,"o":"m 231 443 l 225 444 q 92 349 184 444 q 0 212 0 253 q 28 190 0 191 l 231 443 m 243 460 q 334 566 282 513 l 340 559 q 264 455 336 543 q 300 404 300 433 q 290 368 300 384 q 260 350 278 350 q 236 376 236 350 q 277 412 236 412 q 252 439 267 432 l 54 191 q 171 236 85 194 l 178 226 l 176 219 q 37 169 90 171 q -45 73 2 122 l -53 82 q 14 170 -52 85 q -37 234 -37 188 q 61 396 -37 321 q 243 460 155 469 z "},"":{"ha":858,"x_min":-92,"x_max":771,"o":"m 457 277 q 632 352 546 304 q 753 477 753 419 q 715 505 753 505 q 457 277 616 505 m -71 62 q -2 43 -71 43 q 104 58 47 43 q -21 83 4 83 q -71 62 -71 83 m 496 192 l 501 185 q 454 146 493 162 q 391 132 420 132 q 336 138 368 132 q 165 56 290 106 q 273 33 228 33 q 387 61 319 33 q 456 90 422 76 l 463 79 l 461 75 q 372 30 433 49 q 273 14 317 14 q 133 46 223 14 q -7 24 54 24 q -92 62 -92 24 q -9 102 -92 102 q 134 66 43 102 q 268 151 193 75 q 236 162 264 152 q 203 169 216 169 q 180 165 195 169 q 156 161 164 161 l 150 168 q 242 199 165 199 q 309 193 269 199 q 340 234 327 207 q 295 229 322 229 q 231 241 231 229 q 243 251 231 249 q 269 250 252 252 q 289 248 289 248 q 353 255 334 248 q 509 423 428 353 q 705 522 622 522 q 771 476 771 522 q 433 249 771 367 q 373 181 407 214 q 414 172 397 172 q 457 182 430 172 q 496 192 484 192 z "},"":{"ha":218,"x_min":-26,"x_max":241,"o":"m 69 415 q 131 434 107 434 q 161 401 161 434 q 106 322 161 361 q 13 284 54 284 q -26 322 -26 284 q 64 455 -26 377 q 209 533 153 533 q 241 504 241 533 q 219 479 241 479 q 201 498 201 479 q 218 523 201 515 q 136 484 179 523 q 69 415 102 450 m -6 309 l -5 300 l 8 295 q 86 341 35 294 q 138 415 138 389 q 126 425 138 425 q 43 385 92 425 q -6 309 -6 342 z "},"":{"ha":223,"x_min":-54,"x_max":31,"o":"m 31 240 q -14 195 20 213 q -54 237 -39 211 q -12 283 -41 267 q 31 240 8 273 z "},"":{"ha":580,"x_min":-541,"x_max":758,"o":"m -45 185 l 15 254 q -25 233 -5 243 q -49 198 -49 217 q -45 185 -49 198 m -108 119 l -66 166 l -71 186 l -108 119 m 308 120 q 410 167 340 125 l 420 156 l 417 148 q 290 95 359 98 q 195 29 249 58 q 87 -5 132 -5 q 12 51 12 -5 q 62 113 12 113 q 93 85 93 113 q 38 39 93 37 q 61 17 40 17 q 220 127 142 17 q 298 315 291 227 q 402 484 304 410 q 593 614 497 549 q 736 813 705 701 l 738 823 q 701 854 738 854 q 387 604 598 854 l -454 -391 l -541 -391 q -297 -105 -418 -248 q -93 195 -172 48 q -171 144 -124 172 l -180 155 l -176 163 l -75 228 q -56 290 -64 273 q -5 321 -38 321 q 13 311 5 321 q 19 290 21 300 q 104 354 49 310 q 390 659 247 507 q 705 875 604 875 q 742 861 726 875 q 758 826 758 846 q 707 671 758 758 q 603 543 662 595 q 487 477 566 510 q 381 420 408 445 q 333 298 334 378 q 334 262 333 286 q 336 229 336 239 q 308 120 336 168 z "},"":{"ha":218,"x_min":-55,"x_max":241,"o":"m 241 497 q 224 474 241 474 q 210 489 210 474 q 214 500 210 493 q 217 512 217 508 q 195 536 217 525 l 125 454 q 138 403 138 419 q 100 326 138 356 q 16 298 64 298 q 3 299 9 298 q -34 255 -25 256 l -39 261 q -9 304 -28 275 q -55 359 -55 337 q -25 396 -55 396 q -16 393 -25 396 l -11 380 q -23 363 -10 371 q -37 351 -37 355 q -3 313 -37 343 l 92 430 q 79 472 79 459 q 118 532 79 509 q 190 550 152 553 q 231 598 206 574 l 235 592 q 200 545 224 576 q 241 497 241 518 m 119 465 l 181 539 l 175 540 q 133 525 154 541 q 113 488 113 509 q 119 465 113 479 m 105 379 q 96 416 105 393 l 10 310 l 23 309 q 80 328 54 307 q 105 379 105 348 z "},"":{"ha":218,"x_min":3,"x_max":200,"o":"m 146 508 l 142 509 q 75 462 120 509 q 30 393 30 416 q 44 382 30 384 l 146 508 m 152 517 q 196 571 159 525 l 200 567 q 162 514 187 549 q 180 489 180 504 q 160 463 180 462 l 151 468 l 149 477 l 151 484 q 168 493 156 494 q 156 507 165 500 l 58 382 q 115 406 72 385 l 118 402 q 89 384 118 395 q 49 372 59 372 q 6 326 32 349 l 3 331 q 37 372 16 347 q 12 404 12 380 q 60 485 12 448 q 152 517 108 522 z "},"":{"ha":189,"x_min":87,"x_max":226,"o":"m 168 428 q 206 484 168 484 q 226 460 226 484 q 176 378 226 423 q 92 323 135 342 l 87 329 q 168 428 144 365 z "},"":{"ha":212,"x_min":24,"x_max":234,"o":"m 59 394 q 93 357 93 394 q 59 323 93 323 q 35 333 45 323 q 24 357 24 344 q 34 382 24 371 q 59 394 45 394 m 200 394 q 234 357 234 394 q 200 323 234 323 q 165 357 165 323 q 200 394 165 394 z "},"":{"ha":2189,"x_min":106,"x_max":2488,"o":"m 2470 1019 q 2363 1088 2470 1088 q 2077 956 2239 1088 q 1873 709 1924 832 q 2218 816 2039 742 q 2470 1019 2470 920 m 1994 576 q 2016 591 2016 576 q 1927 618 2016 620 l 1916 618 q 1994 576 1961 576 m 1069 79 q 1161 371 1161 210 q 1152 474 1161 421 q 825 193 1063 394 q 1069 79 940 103 m 2064 330 q 1871 84 2064 179 q 1546 6 1712 6 q 1312 92 1367 6 q 1152 52 1240 61 q 1120 0 1133 26 l 1018 0 q 1057 59 1036 37 q 925 104 975 79 q 809 179 882 125 q 335 0 550 0 q 186 34 250 0 q 106 154 106 76 q 124 206 106 183 q 170 229 142 229 q 216 179 216 229 q 162 121 216 121 q 136 132 149 121 q 212 43 134 75 q 338 18 272 18 q 793 191 543 18 q 621 548 621 371 q 675 733 621 659 q 842 817 736 817 q 1164 509 1053 817 q 1428 745 1296 627 q 1737 975 1602 895 q 2058 1090 1914 1081 q 1798 842 1967 1033 q 1556 555 1750 789 q 1709 606 1669 595 q 1867 639 1796 631 q 1845 689 1850 656 q 1765 682 1780 682 q 1754 690 1754 682 q 1842 707 1754 703 l 1842 720 q 2033 999 1842 876 q 2362 1108 2203 1108 q 2488 1020 2488 1108 q 2233 799 2488 907 q 1871 692 2038 716 q 1889 639 1872 661 l 1925 640 q 2037 588 2037 644 q 1989 556 2037 556 q 1883 618 1955 556 q 1598 515 1740 610 q 1385 296 1463 426 q 1329 149 1329 202 q 1332 126 1329 138 q 1615 315 1473 220 q 1924 426 1794 426 q 2015 404 1975 426 q 2064 330 2064 376 m 1543 28 q 1853 100 1697 28 q 2044 326 2044 189 q 2003 387 2044 366 q 1927 405 1971 405 q 1622 292 1805 405 q 1341 106 1482 199 q 1543 28 1394 28 m 1168 74 q 1298 110 1213 83 q 1273 203 1276 151 l 1168 74 m 808 203 q 1146 496 923 298 q 1051 690 1116 617 q 861 776 974 776 q 703 703 762 776 q 648 533 648 635 q 808 203 648 373 m 1152 191 q 1566 669 1359 430 q 1995 1065 1882 1020 q 1559 827 1824 1032 q 1168 490 1503 783 q 1181 358 1181 410 q 1152 191 1181 275 z "},"":{"ha":991,"x_min":83,"x_max":1421,"o":"m 1114 1049 q 1219 1153 1148 1084 l 1208 1153 q 334 508 766 1153 q 180 137 180 277 q 211 66 180 91 q 446 343 328 205 q 690 612 587 509 q 658 695 658 643 q 775 952 658 827 q 1023 1078 893 1078 q 1114 1049 1065 1078 m 1038 1057 q 804 930 928 1057 q 680 693 680 803 q 705 628 680 652 q 1101 1033 831 767 q 1038 1057 1077 1057 m 1421 1023 q 1352 895 1421 950 q 1212 844 1286 844 l 1195 844 l 1185 854 q 1247 874 1188 859 q 1349 918 1314 892 q 1402 1025 1402 958 q 1352 1116 1402 1080 q 1250 1151 1308 1146 q 1135 1025 1211 1109 q 1160 922 1160 983 q 1016 543 1160 766 q 686 174 877 328 q 323 8 480 8 q 214 33 269 8 q 94 -92 162 -26 l 83 -83 q 136 -15 98 -55 q 196 49 166 17 q 127 230 127 102 q 317 642 127 411 q 742 1013 493 858 q 1190 1173 1000 1173 q 1235 1171 1213 1173 q 1337 1274 1277 1218 l 1348 1265 q 1308 1214 1335 1244 q 1263 1166 1285 1190 q 1370 1123 1325 1158 q 1421 1023 1421 1083 m 741 591 l 230 52 q 325 30 269 30 q 680 194 479 30 q 1002 559 867 346 q 1142 935 1142 779 q 1121 1010 1142 978 l 1080 966 l 1086 961 l 1086 957 q 972 726 1066 846 q 762 589 866 589 q 741 591 751 589 m 1064 947 q 758 609 962 833 q 952 732 858 610 q 1064 947 1029 830 z "},"":{"ha":218,"x_min":-78,"x_max":187,"o":"m -49 294 q 41 338 -9 294 q 112 415 56 353 q 28 377 59 377 q 3 409 3 377 q 58 488 3 450 q 153 523 110 523 q 187 488 187 523 q 98 353 187 424 q -54 284 11 284 q -78 291 -54 284 q -49 294 -78 294 m 155 514 q 75 467 129 514 q 22 394 21 419 l 32 386 q 144 459 75 384 l 147 455 q 170 500 170 479 q 155 514 170 514 z "},"":{"ha":1104,"x_min":639,"x_max":1697,"o":"m 1678 1228 q 1697 1215 1697 1228 q 1607 1172 1697 1200 q 1494 1139 1550 1156 q 1119 886 1310 1071 q 812 486 931 705 q 684 58 684 252 q 707 -113 684 -39 q 719 -144 707 -114 q 726 -175 726 -163 q 708 -191 726 -191 q 700 -188 708 -191 q 639 105 639 -52 q 911 779 639 468 q 1523 1188 1160 1061 q 1678 1228 1637 1228 z "},"":{"ha":1104,"x_min":-168,"x_max":892,"o":"m -149 -214 q -168 -202 -168 -214 q -86 -164 -168 -190 q 16 -134 -35 -149 q 529 256 292 -33 q 845 956 845 644 q 823 1126 845 1052 q 804 1187 804 1188 q 824 1203 804 1203 q 831 1200 824 1203 q 892 909 892 1065 q 618 235 892 548 q 7 -175 368 -52 q -149 -214 -104 -214 z "},"":{"ha":607,"x_min":-195,"x_max":461,"o":"m 212 178 q 313 215 295 207 q 384 280 384 248 q 367 298 384 298 q 212 178 311 298 m 130 298 q -38 199 76 298 q -153 45 -153 98 q -113 18 -153 18 q 78 119 -39 18 q 172 239 96 171 q 176 259 176 248 q 161 288 176 275 q 130 298 146 298 m 203 320 l 277 320 l 258 294 q 359 321 321 321 q 408 286 408 321 q 334 200 408 237 q 197 141 265 171 q 123 50 123 103 q 158 22 123 22 q 342 94 233 22 q 453 168 397 130 l 461 157 l 457 148 q 319 54 357 76 q 168 -3 226 -3 q 69 81 69 -3 q -109 -3 -39 -3 q -195 76 -195 -3 q -78 245 -195 165 q 122 319 28 319 q 186 295 170 319 l 203 320 z "},"":{"ha":400,"x_min":-254,"x_max":246,"o":"m 156 289 q 127 298 142 298 q -44 199 68 298 q -157 42 -157 100 l -156 39 l 156 289 m -143 24 q -123 18 -134 18 q 57 104 -54 18 q 173 260 173 193 q 170 273 173 260 l -143 24 m 195 262 q 137 146 195 214 q 190 158 157 146 q 238 172 223 171 l 246 161 l 241 153 q 117 123 197 123 q -119 -3 -23 -3 q -162 6 -138 -3 l -222 -41 l -254 -41 l -178 19 q -198 74 -198 37 q -83 245 -198 163 q 117 320 24 320 q 172 302 149 320 l 202 326 l 234 326 l 186 289 q 195 262 195 275 z "},"":{"ha":218,"x_min":-18,"x_max":224,"o":"m 19 284 l -18 284 l 149 483 l -1 399 l -7 404 l -6 408 q 128 481 76 450 q 216 538 157 503 l 222 539 l 224 535 q 19 284 222 528 z "},"":{"ha":218,"x_min":-46,"x_max":224,"o":"m 40 294 l 40 284 l -41 284 l -45 288 q -36 294 -46 294 q -24 294 -33 294 l 159 511 l 140 511 l 140 520 l 220 520 l 224 515 q 214 511 224 511 q 202 511 211 511 l 20 294 l 40 294 z "},"":{"ha":596,"x_min":-476,"x_max":977,"o":"m 526 387 q 775 534 630 433 q 958 724 958 661 q 915 759 958 759 q 707 604 849 759 q 526 387 649 541 m 261 164 l 315 225 q 279 207 297 216 q 258 176 258 193 q 261 164 258 176 m 205 105 l 243 148 l 237 166 l 205 105 m 229 387 q 477 534 332 433 q 660 724 660 661 q 617 759 660 759 q 410 604 551 759 q 229 387 351 541 m -37 165 l 18 225 q -18 207 0 216 q -39 176 -39 193 q -37 165 -39 176 m -92 105 l -54 148 l -60 166 l -92 105 m -399 -348 l -476 -348 q -263 -96 -370 -222 q -78 174 -146 49 q -148 128 -105 153 l -155 138 l -152 145 q -63 203 -96 183 q 0 286 -42 286 q 22 258 21 286 q 97 315 48 275 q 351 587 224 451 q 631 779 543 779 q 665 766 650 779 q 680 734 680 753 q 582 589 680 673 q 378 451 509 528 q 206 355 292 404 q 0 115 184 343 q 35 103 18 103 q 139 140 77 103 q 234 203 150 146 q 298 286 255 286 q 319 258 319 286 q 395 315 346 275 q 649 587 522 451 q 929 779 840 779 q 963 766 948 779 q 977 734 977 753 q 879 589 977 673 q 675 451 806 528 q 504 355 590 404 q 298 115 482 343 q 333 103 315 103 q 405 124 366 103 q 452 148 447 147 l 459 139 l 455 132 q 330 85 386 85 q 281 99 307 85 l -102 -348 l -180 -348 q 35 -97 -73 -222 q 218 174 153 48 q 131 115 150 125 q 33 86 79 86 q -16 99 10 86 l -399 -348 z "},"":{"ha":381,"x_min":-25,"x_max":293,"o":"m 174 515 q 117 437 174 478 q 24 399 63 399 q -3 432 -3 399 q 47 507 -3 474 q 138 538 94 538 q 174 515 174 538 m -22 248 l -25 251 q 245 532 102 388 l 250 530 q 119 383 246 515 q -22 248 -7 251 m 164 511 q 145 529 164 529 q 66 488 118 529 q 14 418 13 445 l 26 410 q 109 444 57 409 q 164 511 164 481 m 293 398 q 235 321 293 361 q 143 284 182 284 q 115 315 115 284 q 165 391 115 357 q 255 422 212 422 q 293 398 293 422 m 283 399 q 264 414 278 414 q 185 371 239 414 q 132 304 132 328 q 144 295 132 295 q 229 329 179 295 q 283 399 283 366 z "},"":{"ha":218,"x_min":-143,"x_max":289,"o":"m 131 418 q 279 516 279 466 q 258 530 279 530 q 131 418 218 530 m -133 308 q -97 300 -115 300 q -45 308 -67 300 q -104 321 -92 321 q -133 308 -133 321 m 153 373 l 154 370 q 119 348 155 355 q 71 345 95 344 q -15 305 52 333 q 43 294 18 294 q 128 323 78 294 l 131 323 l 133 315 q 41 285 82 285 q -31 302 15 285 q -100 289 -69 289 q -143 308 -143 289 q -102 329 -143 329 q -31 313 -75 329 q 37 354 -2 318 q 12 359 34 354 q -16 357 -2 363 l -22 361 q 14 375 -22 373 q 58 375 35 376 q 72 394 66 380 q 54 393 62 392 l 25 394 l 18 397 q 54 401 18 401 q 79 404 72 401 q 254 538 176 538 q 289 515 289 538 q 119 401 289 471 q 88 369 109 389 q 113 363 103 363 q 153 373 131 363 z "},"":{"ha":713,"x_min":-42,"x_max":581,"o":"m -35 0 l -42 7 l -35 16 l 1 16 l 205 197 l 293 455 l 256 455 l 249 463 l 256 471 l 417 471 l 425 463 q 406 454 425 455 q 380 455 393 453 l 333 305 l 501 455 l 466 455 l 458 463 q 505 474 458 474 q 540 473 517 474 q 574 471 564 471 l 581 463 l 574 455 l 538 455 l 317 255 l 233 16 l 270 16 l 277 8 l 270 0 l 109 0 l 102 8 q 121 18 102 16 q 146 16 133 18 l 190 146 l 38 16 l 74 16 l 81 8 q 35 -3 82 -3 q -1 -2 22 -3 q -35 0 -24 0 z "},"":{"ha":738,"x_min":0,"x_max":0,"o":""},"":{"ha":1407,"x_min":94,"x_max":1832,"o":"m 1040 66 q 1158 107 1095 78 q 1270 160 1214 134 l 1276 161 l 1281 153 l 1278 145 q 1025 46 1157 62 l 998 0 l 906 0 l 940 54 q 823 92 867 71 q 720 160 785 112 q 298 0 490 0 q 169 28 229 0 q 94 126 94 64 q 152 204 94 204 q 193 161 193 204 q 144 108 193 108 q 121 117 132 108 q 189 38 120 67 q 301 16 242 16 q 706 170 486 16 q 553 488 553 332 q 601 652 553 585 q 749 727 655 727 q 1036 455 935 727 q 1271 664 1154 559 q 1546 869 1426 798 q 1832 970 1704 962 q 1427 550 1712 894 q 1040 66 1421 545 m 1025 170 q 1394 595 1210 382 q 1777 948 1675 907 q 1389 736 1625 920 q 1040 437 1351 707 q 1052 319 1052 365 q 1025 170 1052 245 m 719 182 q 873 309 863 301 q 1021 443 960 382 q 767 691 953 691 q 626 626 678 691 q 578 474 578 566 q 719 182 578 332 m 952 70 q 1034 332 1034 189 q 1025 422 1034 376 q 735 172 947 350 q 952 70 836 92 m 1789 1040 q 1706 1095 1748 1059 q 1655 1174 1655 1141 q 1680 1203 1655 1203 q 1705 1181 1698 1203 q 1712 1145 1708 1163 q 1793 1046 1727 1092 l 1789 1040 z "},"":{"ha":1407,"x_min":96,"x_max":1954,"o":"m 1042 66 q 1160 107 1096 78 q 1272 160 1216 134 l 1277 161 l 1282 153 l 1279 145 q 1027 46 1158 62 l 999 0 l 907 0 l 941 54 q 825 92 869 71 q 722 160 786 112 q 300 0 492 0 q 170 28 231 0 q 96 126 96 64 q 153 204 96 204 q 193 161 193 204 q 145 108 193 108 q 122 117 134 108 q 190 38 121 67 q 302 16 243 16 q 707 170 487 16 q 554 488 554 332 q 602 652 554 585 q 750 727 656 727 q 1038 455 937 727 q 1272 664 1155 559 q 1548 869 1428 798 q 1833 970 1706 962 q 1428 550 1714 894 q 1042 66 1423 545 m 1027 170 q 1396 595 1211 382 q 1779 948 1676 907 q 1390 736 1626 920 q 1042 437 1353 707 q 1053 319 1053 365 q 1027 170 1053 245 m 720 182 q 874 309 864 300 q 1023 443 962 382 q 768 691 955 691 q 627 626 680 691 q 579 474 579 566 q 720 182 579 332 m 954 70 q 1036 332 1036 189 q 1027 422 1036 376 q 736 172 949 349 q 954 70 838 92 m 1954 1127 q 1862 1040 1921 1040 q 1818 1055 1847 1040 q 1775 1069 1790 1069 q 1708 1024 1735 1069 l 1695 1024 q 1790 1117 1741 1117 q 1836 1099 1806 1117 q 1883 1082 1867 1082 q 1942 1127 1914 1082 l 1954 1127 z "},"":{"ha":882,"x_min":114,"x_max":1313,"o":"m 1249 913 q 1183 1004 1249 975 q 1062 1027 1133 1027 q 298 454 682 1027 q 159 123 159 248 q 203 48 159 73 q 291 27 238 27 q 608 174 429 27 q 893 500 773 309 q 1017 835 1017 696 q 992 908 1017 878 q 924 942 965 942 q 716 828 827 942 q 605 617 605 715 q 624 565 605 587 q 673 543 642 543 q 852 654 771 543 q 950 857 912 736 l 958 863 l 966 852 q 865 645 966 762 q 669 524 760 524 q 608 551 631 524 q 586 618 586 578 q 692 850 586 741 q 920 960 799 960 q 1004 919 972 960 q 1033 829 1033 882 q 906 486 1033 686 q 614 156 783 293 q 288 7 431 7 q 159 59 205 7 q 114 194 114 109 q 282 576 114 369 q 661 904 437 768 q 1062 1043 890 1043 q 1195 1017 1141 1043 q 1265 911 1265 983 q 1198 793 1265 842 q 1064 751 1135 748 l 1055 759 q 1160 795 1107 777 q 1249 913 1249 831 m 1313 1215 q 1219 1128 1278 1128 q 1176 1142 1204 1128 q 1133 1156 1147 1156 q 1067 1113 1093 1156 l 1054 1113 q 1149 1204 1099 1204 q 1195 1187 1164 1204 q 1242 1169 1225 1169 q 1299 1215 1272 1169 l 1313 1215 z "},"":{"ha":1531,"x_min":128,"x_max":1843,"o":"m 1822 1020 q 1716 1088 1822 1088 q 1430 957 1592 1088 q 1226 709 1278 833 q 1571 816 1393 742 q 1822 1020 1822 920 m 1348 576 q 1369 591 1369 576 q 1283 618 1369 621 l 1270 618 q 1348 576 1314 576 m 1194 1153 q 334 508 768 1153 q 180 137 180 278 q 229 54 180 82 q 328 30 269 30 q 632 159 464 30 q 626 200 626 182 q 762 460 626 341 q 1030 602 878 563 q 1142 920 1142 793 q 1119 1014 1142 977 q 1038 1057 1091 1057 q 804 930 928 1057 q 680 693 680 803 q 700 634 680 659 q 754 610 720 610 q 1067 962 942 610 l 1077 969 q 1086 957 1086 969 q 1073 912 1086 952 q 954 702 1035 795 q 751 589 857 589 q 682 621 708 589 q 658 694 658 650 q 775 952 658 826 q 1023 1078 893 1078 q 1160 917 1160 1078 q 1057 609 1160 795 q 1220 639 1126 629 q 1198 689 1205 659 q 1120 682 1163 682 q 1108 690 1108 682 q 1195 707 1108 705 q 1402 1008 1193 893 l 1404 1025 q 1330 1128 1407 1095 q 1194 1153 1274 1153 m 685 175 q 683 148 683 163 q 763 52 683 83 q 899 28 822 28 q 1207 101 1052 28 q 1397 325 1397 189 q 1356 388 1397 366 q 1279 405 1324 405 q 1013 316 1156 405 q 797 130 891 241 l 790 127 l 782 136 l 783 142 q 1003 335 844 243 q 1279 426 1162 426 q 1369 403 1330 426 q 1416 328 1416 375 q 1223 84 1416 178 q 899 6 1065 6 q 638 138 698 6 q 490 48 576 85 q 322 8 397 8 q 178 67 229 8 q 128 218 128 123 q 230 521 128 355 q 436 773 311 652 q 1193 1172 848 1172 q 1421 1017 1422 1172 q 1714 1108 1599 1108 q 1799 1088 1764 1108 q 1843 1017 1843 1064 q 1585 800 1843 908 q 1225 692 1387 716 q 1244 639 1226 662 l 1278 640 q 1392 587 1392 644 q 1343 556 1392 556 q 1236 618 1308 556 q 1027 560 1137 613 q 873 355 983 473 q 685 175 779 252 m 995 543 q 694 209 783 421 q 995 543 873 359 z "},"":{"ha":601,"x_min":-199,"x_max":454,"o":"m 203 178 q 304 215 281 204 q 375 280 375 248 q 358 298 375 298 q 203 178 307 298 m 127 298 q -41 199 73 298 q -157 46 -157 98 q -146 27 -157 35 q -124 18 -135 18 q 68 114 -41 18 q 171 243 89 177 q 173 259 173 259 q 159 287 173 275 q 127 298 144 298 m 399 282 q 326 200 399 235 q 189 142 258 171 q 116 49 116 104 q 150 22 116 22 q 333 94 223 22 q 445 168 389 131 l 454 156 l 450 148 q 312 54 350 76 q 161 -3 219 -3 q 63 79 63 -3 q -125 -3 -46 -3 q -199 75 -199 -3 q -83 245 -199 163 q 116 320 24 320 q 170 305 146 320 q 196 259 196 288 q 351 321 285 321 q 399 282 399 321 z "},"":{"ha":530,"x_min":-16,"x_max":307,"o":"m 307 214 q 290 174 298 194 q 258 155 279 155 q 121 159 251 155 q -16 155 38 162 q 0 195 -8 176 q 33 214 11 214 q 170 210 39 214 q 307 214 252 207 z "},"":{"ha":749,"x_min":-34,"x_max":517,"o":"m 517 214 q 501 176 509 195 q 470 155 489 155 q 295 159 412 155 q 120 163 178 163 q -34 155 28 163 q -18 195 -26 175 q 15 214 -6 214 q 193 210 75 214 q 370 206 311 206 q 517 214 458 206 z "},"":{"ha":336,"x_min":466,"x_max":695,"o":"m 488 715 q 466 736 466 715 q 516 797 466 757 q 587 837 566 837 l 593 831 q 488 715 509 715 m 591 715 q 568 736 568 715 q 619 797 568 755 q 688 837 668 837 l 695 830 q 647 767 692 817 q 591 715 602 715 z "},"":{"ha":336,"x_min":451,"x_max":680,"o":"m 555 836 q 578 814 578 836 q 528 754 578 794 q 457 715 478 714 l 451 721 q 555 836 535 836 m 657 836 q 680 814 680 836 q 630 754 680 794 q 559 715 580 714 l 553 721 q 657 836 637 836 z "},"":{"ha":233,"x_min":455,"x_max":582,"o":"m 476 715 q 455 736 455 715 q 505 797 455 756 q 574 837 555 837 l 582 830 q 476 715 497 715 z "},"":{"ha":224,"x_min":444,"x_max":570,"o":"m 548 836 q 570 814 570 836 q 520 754 570 794 q 450 715 471 714 l 444 721 q 548 836 528 836 z "},"":{"ha":361,"x_min":12,"x_max":422,"o":"m 16 225 l 12 228 q 200 451 20 252 q 416 679 375 645 l 419 680 l 422 677 q 232 452 399 639 q 20 227 71 274 l 16 225 z "},"":{"ha":533,"x_min":-357,"x_max":395,"o":"m 318 284 l 395 284 l 140 -6 q 325 102 224 23 q 378 146 341 119 l 386 147 l 391 140 l 389 134 q 182 -9 350 77 q 112 -41 157 -18 q -8 -151 79 -64 q -152 -281 -100 -243 q -305 -344 -237 -344 q -357 -294 -357 -344 q -207 -139 -357 -215 q 16 -50 -166 -119 l 140 95 q -61 0 9 0 q -99 18 -83 0 q -115 58 -115 35 q -41 177 -115 100 q 35 260 34 253 l 25 267 q -75 200 -4 267 q -153 130 -147 130 l -161 136 q -78 223 -159 161 q 33 284 4 284 q 71 236 71 284 q 0 119 71 197 q -72 28 -72 41 q -58 19 -72 19 q 318 284 56 19 m -307 -327 q -136 -234 -226 -327 q -6 -75 -130 -229 q -203 -156 -161 -135 q -338 -294 -338 -225 q -307 -327 -338 -327 m 130 414 q 165 376 165 414 q 130 340 165 340 q 105 352 116 340 q 94 376 94 363 q 105 402 94 391 q 130 414 116 414 m 271 414 q 307 376 307 414 q 271 340 307 340 q 236 376 236 340 q 271 414 236 414 z "},"":{"ha":954,"x_min":136,"x_max":1324,"o":"m 444 292 q 503 258 444 258 q 715 353 582 258 q 897 513 819 428 l 1230 871 l 1324 871 l 824 313 q 602 107 700 174 q 320 12 462 12 q 203 32 251 12 q 136 119 136 60 q 156 179 136 155 q 210 203 176 203 q 249 170 249 203 q 236 139 249 153 q 207 125 224 125 q 170 148 187 125 q 161 111 161 130 q 222 44 161 66 q 320 28 264 28 q 605 161 465 28 q 815 412 658 212 q 500 240 618 240 q 403 311 403 240 q 511 511 403 397 q 711 703 610 607 q 819 881 819 811 q 754 951 819 925 q 652 972 704 972 q 374 893 520 972 q 204 682 204 802 q 314 604 204 604 q 684 800 471 604 q 736 848 707 823 l 744 840 l 741 833 q 315 586 498 586 q 227 608 262 586 q 186 684 186 633 q 361 908 186 814 q 655 988 511 988 q 772 962 720 988 q 838 870 838 929 q 736 644 838 765 q 546 454 730 637 q 444 292 444 351 m 1127 1145 q 1165 1202 1127 1202 q 1185 1176 1185 1202 q 1135 1095 1185 1140 q 1050 1038 1095 1059 l 1046 1044 q 1127 1145 1105 1085 z "},"":{"ha":218,"x_min":-82,"x_max":200,"o":"m 45 295 q 100 322 64 295 q 142 349 136 349 l 144 345 q 99 309 144 334 q 41 284 55 284 q 17 306 17 284 q 24 329 17 317 q -80 290 -3 325 l -82 295 l -79 299 q 69 395 -20 334 l 117 439 q 49 411 69 411 q 24 437 24 411 q 77 507 24 475 q 165 536 123 536 q 200 505 200 536 q 127 408 200 463 q 18 338 123 406 q 53 316 53 339 q 45 295 53 305 m 170 500 l 172 496 l 184 515 l 172 523 q 95 489 148 524 q 40 430 40 452 l 50 420 q 170 500 92 419 z "},"":{"ha":218,"x_min":-92,"x_max":191,"o":"m 131 401 q 66 317 131 353 q -42 285 10 285 q -75 294 -60 285 q -92 322 -92 305 q -65 350 -92 350 q -53 336 -53 350 q -79 317 -53 307 q -43 295 -72 295 q 47 337 -10 295 q 109 411 109 380 q 96 423 109 423 q 66 414 85 423 q 37 404 47 404 l 31 408 l 34 414 q 116 454 75 433 q 170 519 170 486 l 159 528 q 105 506 144 528 q 66 470 66 483 l 71 465 q 153 519 100 464 l 157 515 q 122 479 157 503 q 72 455 87 455 q 53 474 53 455 q 87 519 53 499 q 145 538 118 538 q 191 503 191 538 q 159 456 191 475 q 104 431 159 456 q 131 401 131 420 z "},"":{"ha":218,"x_min":-50,"x_max":178,"o":"m 178 536 l -24 359 q 66 368 6 368 l 130 440 l 155 440 l 97 363 q 125 368 106 363 q 153 372 143 372 l 162 366 q 131 352 162 355 q 90 351 116 351 l 38 284 l 0 284 l 56 354 q 30 357 35 357 q -8 349 17 357 q -47 342 -34 342 l -50 346 q -24 374 -47 353 q 8 401 -7 388 q 134 536 68 460 l 178 536 z "},"":{"ha":311,"x_min":14,"x_max":272,"o":"m 127 520 q 177 531 155 531 q 203 528 186 531 q 229 524 220 524 q 269 535 250 524 l 272 532 l 271 528 q 202 457 248 505 q 45 284 127 379 l 14 284 q 107 395 77 362 q 215 490 162 454 l 199 489 q 165 495 187 488 q 134 502 144 502 q 93 480 114 502 q 68 458 71 458 l 65 461 q 130 538 66 470 l 134 535 l 127 520 z "},"":{"ha":403,"x_min":8,"x_max":209,"o":"m 209 -98 q 159 -203 209 -155 q 52 -250 109 -250 q 23 -240 39 -250 q 8 -218 8 -231 q 19 -197 8 -205 q 38 -186 24 -186 q 52 -201 52 -193 q 25 -210 38 -215 l 25 -215 q 56 -234 25 -234 q 140 -180 103 -234 q 174 -80 174 -130 q 150 -52 174 -52 q 95 -72 119 -52 q 52 -108 73 -90 l 52 -102 q 137 14 77 -77 l 159 14 l 113 -52 q 156 -39 136 -39 q 209 -98 209 -39 z "},"":{"ha":224,"x_min":40,"x_max":167,"o":"m 144 59 q 167 38 167 59 q 117 -22 167 18 q 46 -62 67 -62 l 40 -56 q 144 59 124 59 z "},"":{"ha":336,"x_min":52,"x_max":280,"o":"m 156 72 q 178 51 178 72 q 129 -9 178 31 q 58 -49 79 -49 l 52 -43 q 156 72 136 72 m 258 72 q 280 51 280 72 q 230 -9 280 31 q 159 -49 180 -49 l 153 -43 q 258 72 237 72 z "},"":{"ha":1407,"x_min":94,"x_max":1917,"o":"m 1040 66 q 1158 107 1095 78 q 1270 160 1214 134 l 1276 161 l 1281 153 l 1278 145 q 1025 46 1157 62 l 998 0 l 906 0 l 940 54 q 823 92 867 71 q 720 160 785 112 q 298 0 490 0 q 169 28 229 0 q 94 126 94 64 q 152 204 94 204 q 193 161 193 204 q 144 108 193 108 q 121 117 132 108 q 189 38 120 67 q 301 16 242 16 q 706 170 486 16 q 553 488 553 332 q 601 652 553 585 q 749 727 655 727 q 1036 455 935 727 q 1271 664 1154 559 q 1546 869 1426 798 q 1832 970 1704 962 q 1427 550 1712 894 q 1040 66 1421 545 m 1025 170 q 1394 595 1210 382 q 1777 948 1675 907 q 1389 736 1625 920 q 1040 437 1351 707 q 1052 319 1052 365 q 1025 170 1052 245 m 719 182 q 873 309 863 301 q 1021 443 960 382 q 767 691 953 691 q 626 626 678 691 q 578 474 578 566 q 719 182 578 332 m 952 70 q 1034 332 1034 189 q 1025 422 1034 376 q 735 172 947 350 q 952 70 836 92 m 1858 1202 q 1917 1047 1874 1109 l 1908 1040 q 1841 1138 1869 1071 q 1686 1046 1754 1067 l 1686 1050 q 1848 1202 1773 1112 l 1858 1202 z "},"":{"ha":991,"x_min":104,"x_max":1227,"o":"m 224 774 q 488 612 224 612 q 610 627 557 612 l 610 637 q 775 887 607 777 q 1074 987 926 987 q 1149 970 1118 987 q 1187 907 1187 948 q 958 711 1187 809 q 637 615 781 636 q 653 569 638 589 l 684 570 q 785 523 785 574 q 743 495 785 495 q 647 551 706 495 q 393 459 519 543 q 203 264 273 379 q 155 132 155 182 q 227 45 155 75 q 348 25 279 25 q 621 90 483 25 q 789 290 789 170 q 753 345 789 326 q 686 360 725 360 q 449 281 576 360 q 256 115 340 214 l 251 113 l 242 121 l 243 126 q 441 298 300 218 q 688 378 581 378 q 767 358 732 378 q 808 293 808 334 q 635 75 808 161 q 346 5 493 5 q 184 42 248 5 q 104 180 104 88 q 293 458 104 344 q 632 569 448 552 l 612 610 q 483 597 555 597 q 206 774 206 597 q 372 988 206 911 q 657 1046 506 1050 l 680 1046 l 690 1037 l 681 1028 q 515 1007 597 1018 q 355 962 414 993 q 238 845 276 922 q 224 774 224 815 m 747 513 q 765 525 765 513 q 689 551 765 553 l 676 551 q 747 513 718 513 m 1169 907 q 1139 954 1169 937 q 1083 968 1115 968 q 823 854 966 968 q 638 631 687 747 q 945 727 779 657 q 1169 907 1169 821 m 1168 1202 q 1227 1048 1184 1109 l 1219 1040 q 1151 1138 1179 1071 q 998 1046 1065 1067 l 998 1050 q 1158 1202 1084 1113 l 1168 1202 z "},"":{"ha":1407,"x_min":94,"x_max":1941,"o":"m 1040 66 q 1158 107 1095 78 q 1270 160 1214 134 l 1276 161 l 1281 153 l 1278 145 q 1025 46 1157 62 l 998 0 l 906 0 l 940 54 q 823 92 867 71 q 720 160 785 112 q 298 0 490 0 q 169 28 229 0 q 94 126 94 64 q 152 204 94 204 q 193 161 193 204 q 144 108 193 108 q 121 117 132 108 q 189 38 120 67 q 301 16 242 16 q 706 170 486 16 q 553 488 553 332 q 601 652 553 585 q 749 727 655 727 q 1036 455 935 727 q 1271 664 1154 559 q 1546 869 1426 798 q 1832 970 1704 962 q 1427 550 1712 894 q 1040 66 1421 545 m 1025 170 q 1394 595 1210 382 q 1777 948 1675 907 q 1389 736 1625 920 q 1040 437 1351 707 q 1052 319 1052 365 q 1025 170 1052 245 m 719 182 q 873 309 863 301 q 1021 443 960 382 q 767 691 953 691 q 626 626 678 691 q 578 474 578 566 q 719 182 578 332 m 952 70 q 1034 332 1034 189 q 1025 422 1034 376 q 735 172 947 350 q 952 70 836 92 m 1882 1157 q 1921 1215 1882 1215 q 1941 1190 1941 1215 q 1890 1108 1941 1154 q 1807 1052 1851 1074 l 1802 1058 q 1882 1157 1861 1101 z "},"":{"ha":991,"x_min":104,"x_max":1234,"o":"m 224 774 q 488 612 224 612 q 610 627 557 612 l 610 637 q 775 887 607 777 q 1074 987 926 987 q 1149 970 1118 987 q 1187 907 1187 948 q 958 711 1187 809 q 637 615 781 636 q 653 569 638 589 l 684 570 q 785 523 785 574 q 743 495 785 495 q 647 551 706 495 q 393 459 519 543 q 203 264 273 379 q 155 132 155 182 q 227 45 155 75 q 348 25 279 25 q 621 90 483 25 q 789 290 789 170 q 753 345 789 326 q 686 360 725 360 q 449 281 576 360 q 256 115 340 214 l 251 113 l 242 121 l 243 126 q 441 298 300 218 q 688 378 581 378 q 767 358 732 378 q 808 293 808 334 q 635 75 808 161 q 346 5 493 5 q 184 42 248 5 q 104 180 104 88 q 293 458 104 344 q 632 569 448 552 l 612 610 q 483 597 555 597 q 206 774 206 597 q 372 988 206 911 q 657 1046 506 1050 l 680 1046 l 690 1037 l 681 1028 q 515 1007 597 1018 q 355 962 414 993 q 238 845 276 922 q 224 774 224 815 m 747 513 q 765 525 765 513 q 689 551 765 553 l 676 551 q 747 513 718 513 m 1169 907 q 1139 954 1169 937 q 1083 968 1115 968 q 823 854 966 968 q 638 631 687 747 q 945 727 779 657 q 1169 907 1169 821 m 1057 1156 q 1092 1120 1092 1156 q 1057 1084 1092 1084 q 1032 1096 1043 1084 q 1021 1120 1021 1107 q 1057 1156 1021 1156 m 1198 1156 q 1234 1120 1234 1156 q 1198 1084 1234 1084 q 1162 1120 1162 1084 q 1198 1156 1162 1156 z "},"":{"ha":991,"x_min":104,"x_max":1187,"o":"m 224 774 q 488 612 224 612 q 610 627 557 612 l 610 637 q 775 887 607 777 q 1074 987 926 987 q 1149 970 1118 987 q 1187 907 1187 948 q 958 711 1187 809 q 637 615 781 636 q 653 569 638 589 l 684 570 q 785 523 785 574 q 743 495 785 495 q 647 551 706 495 q 393 459 519 543 q 203 264 273 379 q 155 132 155 182 q 227 45 155 75 q 348 25 279 25 q 621 90 483 25 q 789 290 789 170 q 753 345 789 326 q 686 360 725 360 q 449 281 576 360 q 256 115 340 214 l 251 113 l 242 121 l 243 126 q 441 298 300 218 q 688 378 581 378 q 767 358 732 378 q 808 293 808 334 q 635 75 808 161 q 346 5 493 5 q 184 42 248 5 q 104 180 104 88 q 293 458 104 344 q 632 569 448 552 l 612 610 q 483 597 555 597 q 206 774 206 597 q 372 988 206 911 q 657 1046 506 1050 l 680 1046 l 690 1037 l 681 1028 q 515 1007 597 1018 q 355 962 414 993 q 238 845 276 922 q 224 774 224 815 m 747 513 q 765 525 765 513 q 689 551 765 553 l 676 551 q 747 513 718 513 m 1169 907 q 1139 954 1169 937 q 1083 968 1115 968 q 823 854 966 968 q 638 631 687 747 q 945 727 779 657 q 1169 907 1169 821 m 1139 1037 q 1057 1093 1098 1057 q 1006 1170 1006 1137 q 1031 1200 1006 1200 q 1058 1177 1048 1200 q 1064 1144 1059 1165 q 1143 1043 1079 1090 l 1139 1037 z "},"":{"ha":1007,"x_min":93,"x_max":1613,"o":"m 989 499 q 1119 546 1058 503 q 1218 643 1166 578 q 1304 754 1261 699 l 1311 758 l 1319 751 q 1265 675 1318 744 q 1142 544 1196 585 q 977 480 1065 484 q 292 -9 678 -9 q 163 16 218 -9 q 93 116 93 50 q 110 166 93 145 q 156 188 127 188 q 195 148 195 188 q 152 104 195 104 q 124 119 138 104 q 120 100 120 111 q 184 25 120 49 q 292 8 230 8 q 661 161 505 8 q 901 495 748 246 q 787 639 787 535 q 1042 935 787 821 q 1455 1028 1248 1028 q 1539 1016 1533 1028 l 1535 1010 q 1208 814 1332 942 q 989 499 1121 725 m 911 511 q 1160 813 1050 711 q 1493 1013 1309 952 q 1152 956 1312 1012 q 868 764 964 889 q 809 618 809 688 q 844 551 809 583 q 911 511 873 523 m 1554 1188 q 1594 1246 1554 1246 q 1613 1221 1613 1246 q 1564 1139 1613 1183 q 1479 1083 1525 1104 l 1475 1089 q 1554 1188 1533 1128 z "},"":{"ha":1007,"x_min":94,"x_max":1608,"o":"m 990 499 q 1120 546 1059 503 q 1219 643 1167 578 q 1305 754 1263 699 l 1313 758 l 1320 751 q 1267 675 1320 744 q 1143 544 1198 585 q 979 480 1067 484 q 294 -9 680 -9 q 165 16 219 -9 q 94 116 94 50 q 112 166 94 145 q 157 188 130 188 q 196 148 196 188 q 154 104 196 104 q 125 119 139 104 q 121 100 121 111 q 185 25 121 49 q 294 8 231 8 q 662 161 506 8 q 902 495 749 246 q 788 639 788 535 q 1043 935 788 821 q 1456 1028 1249 1028 q 1541 1016 1534 1028 l 1537 1010 q 1209 814 1333 942 q 990 499 1122 725 m 912 511 q 1162 813 1053 711 q 1494 1013 1310 952 q 1153 956 1313 1012 q 869 764 966 889 q 810 618 810 688 q 845 551 810 583 q 912 511 875 523 m 1549 1246 q 1608 1092 1564 1153 l 1598 1084 q 1533 1181 1559 1116 q 1378 1090 1441 1110 l 1378 1095 q 1540 1246 1467 1160 l 1549 1246 z "},"":{"ha":1007,"x_min":93,"x_max":1593,"o":"m 989 499 q 1119 546 1058 503 q 1218 643 1166 578 q 1304 754 1261 699 l 1311 758 l 1319 751 q 1265 675 1318 744 q 1142 544 1196 585 q 977 480 1065 484 q 292 -9 678 -9 q 163 16 218 -9 q 93 116 93 50 q 110 166 93 145 q 156 188 127 188 q 195 148 195 188 q 152 104 195 104 q 124 119 138 104 q 120 100 120 111 q 184 25 120 49 q 292 8 230 8 q 661 161 505 8 q 901 495 748 246 q 787 639 787 535 q 1042 935 787 821 q 1455 1028 1248 1028 q 1539 1016 1533 1028 l 1535 1010 q 1208 814 1332 942 q 989 499 1121 725 m 911 511 q 1160 813 1050 711 q 1493 1013 1309 952 q 1152 956 1312 1012 q 868 764 964 889 q 809 618 809 688 q 844 551 809 583 q 911 511 873 523 m 1416 1185 q 1451 1148 1451 1185 q 1416 1114 1451 1114 q 1393 1125 1404 1114 q 1382 1148 1382 1136 q 1392 1174 1382 1162 q 1416 1185 1402 1185 m 1558 1185 q 1593 1148 1593 1185 q 1558 1114 1593 1114 q 1534 1125 1545 1114 q 1524 1148 1524 1135 q 1558 1185 1524 1185 z "},"":{"ha":1007,"x_min":93,"x_max":1539,"o":"m 989 499 q 1119 546 1058 503 q 1218 643 1166 578 q 1304 754 1261 699 l 1311 758 l 1319 751 q 1265 675 1318 744 q 1142 544 1196 585 q 977 480 1065 484 q 292 -9 678 -9 q 163 16 218 -9 q 93 116 93 50 q 110 166 93 145 q 156 188 127 188 q 195 148 195 188 q 152 104 195 104 q 124 119 138 104 q 120 100 120 111 q 184 25 120 49 q 292 8 230 8 q 661 161 505 8 q 901 495 748 246 q 787 639 787 535 q 1042 935 787 821 q 1455 1028 1248 1028 q 1539 1016 1533 1028 l 1535 1010 q 1208 814 1332 942 q 989 499 1121 725 m 911 511 q 1160 813 1050 711 q 1493 1013 1309 952 q 1152 956 1312 1012 q 868 764 964 889 q 809 618 809 688 q 844 551 809 583 q 911 511 873 523 m 1533 1084 q 1449 1139 1489 1105 q 1398 1219 1398 1183 q 1423 1247 1398 1247 q 1450 1223 1440 1247 q 1456 1190 1451 1213 q 1537 1090 1471 1136 l 1533 1084 z "},"":{"ha":882,"x_min":115,"x_max":1270,"o":"m 1251 913 q 1184 1004 1251 975 q 1064 1027 1135 1027 q 299 454 684 1027 q 161 123 161 248 q 204 48 161 73 q 292 27 240 27 q 609 174 431 27 q 895 500 774 309 q 1019 835 1019 696 q 994 908 1019 878 q 925 942 967 942 q 718 828 829 942 q 606 617 606 715 q 625 565 606 587 q 674 543 644 543 q 854 654 772 543 q 952 857 913 736 l 960 863 l 968 852 q 866 645 968 762 q 671 524 761 524 q 610 551 633 524 q 587 618 587 578 q 694 850 587 741 q 922 960 800 960 q 1005 919 974 960 q 1034 829 1034 882 q 907 486 1034 686 q 615 156 785 293 q 290 7 432 7 q 160 59 206 7 q 115 194 115 109 q 283 576 115 369 q 663 904 439 768 q 1063 1043 892 1043 q 1196 1017 1143 1043 q 1267 911 1267 983 q 1199 793 1267 842 q 1065 751 1136 748 l 1057 759 q 1161 795 1109 777 q 1251 913 1251 831 m 1211 1221 q 1251 1278 1211 1278 q 1270 1253 1270 1278 q 1220 1172 1270 1216 q 1136 1116 1182 1138 l 1132 1122 q 1211 1221 1191 1165 z "},"":{"ha":882,"x_min":115,"x_max":1267,"o":"m 1251 913 q 1184 1004 1251 975 q 1064 1027 1135 1027 q 299 454 684 1027 q 161 123 161 248 q 204 48 161 73 q 292 27 240 27 q 609 174 431 27 q 895 500 774 309 q 1019 835 1019 696 q 994 908 1019 878 q 925 942 967 942 q 718 828 829 942 q 606 617 606 715 q 625 565 606 587 q 674 543 644 543 q 854 654 772 543 q 952 857 913 736 l 960 863 l 968 852 q 866 645 968 762 q 671 524 761 524 q 610 551 633 524 q 587 618 587 578 q 694 850 587 741 q 922 960 800 960 q 1005 919 974 960 q 1034 829 1034 882 q 907 486 1034 686 q 615 156 785 293 q 290 7 432 7 q 160 59 206 7 q 115 194 115 109 q 283 576 115 369 q 663 904 439 768 q 1063 1043 892 1043 q 1196 1017 1143 1043 q 1267 911 1267 983 q 1199 793 1267 842 q 1065 751 1136 748 l 1057 759 q 1161 795 1109 777 q 1251 913 1251 831 m 1204 1277 q 1263 1123 1219 1182 l 1254 1116 q 1186 1212 1214 1147 q 1031 1122 1103 1143 l 1031 1126 q 1194 1277 1118 1186 l 1204 1277 z "},"":{"ha":882,"x_min":115,"x_max":1267,"o":"m 1251 913 q 1184 1004 1251 975 q 1064 1027 1135 1027 q 299 454 684 1027 q 161 123 161 248 q 204 48 161 73 q 292 27 240 27 q 609 174 431 27 q 895 500 774 309 q 1019 835 1019 696 q 994 908 1019 878 q 925 942 967 942 q 718 828 829 942 q 606 617 606 715 q 625 565 606 587 q 674 543 644 543 q 854 654 772 543 q 952 857 913 736 l 960 863 l 968 852 q 866 645 968 762 q 671 524 761 524 q 610 551 633 524 q 587 618 587 578 q 694 850 587 741 q 922 960 800 960 q 1005 919 974 960 q 1034 829 1034 882 q 907 486 1034 686 q 615 156 785 293 q 290 7 432 7 q 160 59 206 7 q 115 194 115 109 q 283 576 115 369 q 663 904 439 768 q 1063 1043 892 1043 q 1196 1017 1143 1043 q 1267 911 1267 983 q 1199 793 1267 842 q 1065 751 1136 748 l 1057 759 q 1161 795 1109 777 q 1251 913 1251 831 m 1192 1114 q 1109 1169 1150 1134 q 1058 1248 1058 1214 q 1084 1277 1058 1277 q 1111 1253 1101 1277 q 1117 1219 1112 1242 q 1196 1120 1133 1164 l 1192 1114 z "},"":{"ha":1050,"x_min":106,"x_max":1331,"o":"m 1254 880 l 1331 880 q 940 441 1135 661 q 602 33 602 58 q 633 16 602 16 q 805 89 701 16 q 928 170 917 168 l 938 162 q 800 62 934 131 q 629 -3 670 -3 q 576 46 576 -3 q 618 156 576 92 q 692 254 633 178 q 477 94 602 170 q 237 -2 322 -2 q 152 54 152 -2 q 317 308 152 136 q 624 611 471 459 q 789 864 789 783 q 718 946 789 919 q 602 966 667 966 q 305 895 454 966 q 125 677 125 809 q 250 591 125 591 q 505 678 360 591 q 719 850 629 753 l 726 854 l 734 845 l 732 838 q 522 656 682 745 q 257 570 366 570 q 157 593 198 570 q 106 675 106 621 q 293 909 106 817 q 605 984 448 984 q 745 955 690 984 q 814 840 814 918 q 650 541 814 731 q 345 231 573 452 q 180 39 180 72 q 199 23 180 30 q 224 17 213 17 q 595 201 365 17 q 985 578 764 338 q 1254 880 1120 729 m 1099 1028 q 1137 1086 1099 1086 q 1157 1061 1157 1086 q 1106 979 1157 1024 q 1023 923 1067 944 l 1018 929 q 1099 1028 1078 970 z "},"":{"ha":1050,"x_min":106,"x_max":1331,"o":"m 1254 880 l 1331 880 q 940 441 1135 661 q 602 33 602 58 q 633 16 602 16 q 805 89 701 16 q 928 170 917 168 l 938 162 q 800 62 934 131 q 629 -3 670 -3 q 576 46 576 -3 q 618 156 576 92 q 692 254 633 178 q 477 94 602 170 q 237 -2 322 -2 q 152 54 152 -2 q 317 308 152 136 q 624 611 471 459 q 789 864 789 783 q 718 946 789 919 q 602 966 667 966 q 305 895 454 966 q 125 677 125 809 q 250 591 125 591 q 505 678 360 591 q 719 850 629 753 l 726 854 l 734 845 l 732 838 q 522 656 682 745 q 257 570 366 570 q 157 593 198 570 q 106 675 106 621 q 293 909 106 817 q 605 984 448 984 q 745 955 690 984 q 814 840 814 918 q 650 541 814 731 q 345 231 573 452 q 180 39 180 72 q 199 23 180 30 q 224 17 213 17 q 595 201 365 17 q 985 578 764 338 q 1254 880 1120 729 m 1103 1113 q 1161 958 1120 1018 l 1152 951 q 1086 1048 1114 983 q 931 957 993 976 l 931 962 q 1093 1113 1014 1019 l 1103 1113 z "},"":{"ha":1050,"x_min":104,"x_max":1329,"o":"m 1253 880 l 1329 880 q 939 441 1134 661 q 601 33 601 58 q 632 16 601 16 q 803 89 699 16 q 927 170 916 168 l 936 162 q 799 62 932 131 q 627 -3 669 -3 q 574 46 574 -3 q 617 156 574 92 q 691 254 631 178 q 476 94 600 170 q 235 -2 321 -2 q 151 54 151 -2 q 316 308 151 136 q 622 611 469 459 q 787 864 787 783 q 717 946 787 919 q 600 966 666 966 q 304 895 452 966 q 123 677 123 809 q 249 591 123 591 q 503 678 359 591 q 718 850 627 753 l 724 854 l 732 845 l 731 838 q 521 656 681 745 q 256 570 365 570 q 155 593 197 570 q 104 675 104 621 q 292 909 104 817 q 604 984 446 984 q 743 955 688 984 q 813 840 813 918 q 649 541 813 731 q 344 231 572 452 q 179 39 179 72 q 197 23 179 30 q 222 17 212 17 q 593 201 363 17 q 984 578 763 338 q 1253 880 1118 729 m 1063 951 q 980 1006 1020 971 q 928 1085 928 1051 q 955 1114 928 1114 q 981 1090 972 1114 q 987 1057 983 1079 q 1067 957 1002 1002 l 1063 951 z "},"":{"ha":269,"x_min":49,"x_max":279,"o":"m 220 1200 q 279 1046 235 1107 l 270 1038 q 202 1137 231 1069 q 49 1044 116 1066 l 49 1049 q 210 1200 135 1112 l 220 1200 z "},"":{"ha":243,"x_min":75,"x_max":334,"o":"m 334 1129 q 242 1042 302 1042 q 199 1056 228 1042 q 155 1070 170 1070 q 88 1025 116 1070 l 75 1025 q 171 1118 121 1118 q 217 1101 187 1118 q 264 1084 248 1084 q 323 1129 295 1084 l 334 1129 z "},"":{"ha":218,"x_min":-89,"x_max":217,"o":"m 109 507 l 54 452 q 94 462 75 462 q 137 425 137 462 q 71 326 137 371 q -45 284 11 284 q -89 321 -89 284 q -62 351 -89 351 q -43 332 -43 351 q -64 313 -43 312 l -78 320 q -50 294 -75 294 q 49 347 -14 294 q 112 435 112 400 q 88 450 112 450 q 5 403 52 450 l -2 406 l 121 532 q 167 522 141 522 q 190 526 174 522 q 214 529 205 529 l 217 526 l 216 524 q 142 501 174 501 q 109 507 125 501 z "},"":{"ha":533,"x_min":-357,"x_max":395,"o":"m 318 284 l 395 284 l 140 -6 q 325 102 224 23 q 378 146 341 119 l 386 147 l 391 140 l 389 134 q 182 -9 350 77 q 112 -41 157 -18 q -8 -151 79 -64 q -152 -281 -100 -243 q -305 -344 -237 -344 q -357 -294 -357 -344 q -207 -139 -357 -215 q 16 -50 -166 -119 l 140 95 q -61 0 9 0 q -99 18 -83 0 q -115 58 -115 35 q -41 177 -115 100 q 35 260 34 253 l 25 267 q -75 200 -4 267 q -153 130 -147 130 l -161 136 q -78 223 -159 161 q 33 284 4 284 q 71 236 71 284 q 0 119 71 197 q -72 28 -72 41 q -58 19 -72 19 q 318 284 56 19 m -307 -327 q -136 -234 -226 -327 q -6 -75 -130 -229 q -203 -156 -161 -135 q -338 -294 -338 -225 q -307 -327 -338 -327 m 277 471 l 288 467 q 292 453 292 453 q 186 340 292 404 l 181 348 q 228 399 221 382 q 249 455 238 427 q 277 471 258 473 z "},"":{"ha":585,"x_min":-71,"x_max":467,"o":"m 96 16 l 102 9 l 96 0 l -65 0 l -71 7 l -65 16 l -28 16 l 334 455 l 299 455 l 292 463 l 299 471 l 460 471 l 467 463 l 460 455 l 423 455 l 60 16 l 96 16 z "},"":{"ha":585,"x_min":-52,"x_max":513,"o":"m 507 455 l 470 455 q 203 212 336 334 q -43 0 -33 1 l -52 7 q 214 455 -50 16 l 178 455 l 171 463 q 233 475 172 475 q 287 473 252 475 q 338 471 321 471 l 344 463 l 338 455 l 302 455 l 147 199 l 435 455 l 398 455 l 390 463 q 437 474 391 474 q 472 473 450 474 q 507 471 497 471 l 513 463 l 507 455 z "},"":{"ha":1336,"x_min":111,"x_max":1909,"o":"m 1029 503 l 1103 511 q 1232 608 1184 608 q 1265 581 1265 608 q 1213 523 1265 551 q 1135 493 1173 500 q 1099 411 1117 452 q 1043 357 1072 357 q 1024 357 1036 357 q 1006 359 1012 358 l 998 363 q 1038 428 999 378 q 1090 490 1069 468 l 1018 481 q 749 144 886 254 q 348 7 576 7 q 197 31 258 7 q 111 140 111 64 q 127 183 111 165 q 169 200 143 200 q 198 185 186 200 q 211 153 211 171 q 201 124 211 138 q 176 108 190 108 q 134 121 153 108 q 345 23 155 23 q 595 92 486 23 q 771 262 682 147 q 924 475 848 369 q 674 427 793 468 q 600 399 592 399 l 595 399 l 589 407 l 595 415 q 936 493 720 479 q 1139 720 1002 581 q 1363 917 1288 870 l 1372 919 l 1377 913 l 1375 905 q 1317 851 1355 882 q 1257 800 1269 812 q 1029 503 1115 665 m 1245 577 q 1234 589 1245 589 q 1181 562 1211 589 q 1141 514 1155 538 q 1201 538 1164 519 q 1245 577 1245 560 m 971 964 q 661 901 806 964 q 475 677 475 821 q 532 593 475 622 q 637 571 576 571 q 848 627 730 571 q 985 773 985 692 q 956 830 985 810 q 892 848 930 848 q 583 713 734 848 q 515 646 562 689 l 509 645 l 505 650 l 507 658 q 675 798 541 728 q 888 865 804 865 q 964 845 931 865 q 1002 781 1002 822 q 862 614 1002 685 q 637 553 743 553 q 518 582 567 553 q 458 682 458 616 q 488 782 458 740 q 841 976 594 934 q 1261 994 951 994 q 1492 993 1337 994 q 1723 992 1647 992 q 1817 1006 1786 992 q 1895 1057 1840 1015 l 1902 1059 l 1909 1050 l 1907 1043 q 1536 922 1795 922 q 1253 943 1441 922 q 971 964 1065 964 m 1307 441 q 1264 395 1299 420 q 1223 439 1240 410 q 1265 483 1236 467 q 1307 441 1286 472 m 1164 284 q 1046 153 1105 219 q 948 31 950 45 l 960 23 q 1194 148 1034 20 l 1200 138 q 1089 53 1199 109 q 947 -1 985 -1 q 905 43 905 -1 q 930 115 905 77 q 980 176 932 118 q 906 131 951 155 l 899 140 l 903 148 q 1088 284 1017 223 l 1164 284 z "},"":{"ha":1341,"x_min":119,"x_max":1918,"o":"m 1038 503 l 1112 511 q 1241 608 1190 608 q 1273 582 1273 608 q 1221 522 1273 550 q 1142 493 1181 500 q 1108 410 1125 452 q 1052 357 1081 357 q 1033 357 1045 357 q 1015 359 1021 358 l 1006 363 q 1099 490 1009 398 l 1027 481 q 752 148 885 255 q 353 7 577 7 q 205 31 265 7 q 119 140 119 65 q 136 183 119 165 q 178 200 152 200 q 207 185 195 200 q 220 153 220 171 q 210 124 220 138 q 184 108 199 108 q 143 121 162 108 q 353 23 163 23 q 604 92 494 23 q 780 262 690 147 q 932 475 856 369 q 607 399 777 467 l 597 408 l 603 415 q 945 493 727 479 q 1148 720 1010 581 q 1372 917 1297 870 l 1381 919 l 1385 913 l 1383 905 q 1326 851 1364 882 q 1265 800 1278 811 q 1038 503 1124 666 m 1254 577 q 1242 589 1254 589 q 1190 562 1220 589 q 1149 514 1164 538 q 1210 538 1173 519 q 1254 577 1254 560 m 980 964 q 670 901 816 964 q 483 677 483 821 q 541 594 483 623 q 646 571 585 571 q 857 627 739 571 q 994 773 994 692 q 964 830 994 810 q 901 848 939 848 q 591 713 743 848 q 525 646 570 689 l 519 645 l 513 650 l 515 658 q 684 798 550 728 q 897 865 813 865 q 972 845 940 865 q 1009 781 1009 821 q 871 614 1009 684 q 646 553 753 553 q 527 581 576 553 q 466 680 466 615 q 496 782 466 739 q 850 976 603 934 q 1269 994 960 994 q 1500 993 1346 994 q 1732 992 1655 992 q 1826 1006 1794 992 q 1904 1057 1849 1015 l 1910 1059 l 1918 1050 l 1916 1043 q 1545 922 1804 922 q 1262 943 1450 922 q 980 964 1074 964 m 1253 387 q 1506 549 1460 516 q 1689 751 1689 680 q 1655 784 1689 784 q 1436 621 1579 784 q 1253 387 1398 578 m 1201 147 l 1206 140 q 1096 52 1205 109 q 953 -1 993 -1 q 910 43 910 -1 q 937 115 910 77 q 986 176 939 119 q 913 132 957 156 l 905 140 l 909 148 q 1006 210 1006 210 q 1093 284 1062 248 q 1229 447 1161 366 q 1453 682 1356 595 q 1659 802 1586 802 q 1692 786 1678 802 q 1706 751 1706 771 q 1605 596 1706 681 q 1399 460 1540 543 q 1236 357 1262 380 q 1098 210 1177 304 q 968 55 1033 133 q 954 31 962 47 l 965 23 q 1103 81 1016 21 q 1201 147 1199 147 z "},"":{"ha":1066,"x_min":128,"x_max":1630,"o":"m 977 973 l 984 965 q 911 884 979 953 q 824 794 831 803 q 715 642 779 741 q 610 486 641 527 q 408 248 547 402 q 193 28 260 85 q 652 349 386 98 q 1083 766 867 557 q 1493 972 1322 972 q 1581 954 1544 972 q 1630 886 1630 931 q 1616 845 1630 863 q 1578 828 1601 828 q 1537 871 1537 828 q 1581 924 1537 912 q 1494 951 1553 951 q 1120 775 1334 951 q 809 474 1047 715 q 546 222 633 296 q 241 26 393 94 q 156 -7 231 22 q 142 1 142 -8 q 144 9 142 1 q 212 76 168 31 q 329 218 264 127 q 550 521 492 446 q 797 808 665 669 q 661 772 734 772 q 579 800 595 772 q 570 886 570 817 q 519 941 570 922 q 439 956 483 956 q 252 907 340 956 q 147 760 147 850 q 195 672 147 702 q 295 648 234 648 q 551 768 419 648 q 564 760 564 769 l 563 754 q 441 668 531 708 q 295 629 355 629 q 181 660 227 629 q 128 760 128 694 q 239 919 128 856 q 437 973 333 973 q 567 939 523 973 q 627 824 611 905 q 679 793 634 793 q 872 881 766 793 q 977 973 924 927 m 971 387 q 1224 549 1177 514 q 1407 751 1407 680 q 1374 784 1407 784 q 1155 621 1298 784 q 971 387 1117 578 m 920 147 l 924 140 q 814 52 924 109 q 671 -1 711 -1 q 629 43 629 -1 q 655 115 629 77 q 705 176 658 119 q 631 132 675 156 l 623 140 l 628 148 q 725 210 724 210 q 812 284 781 248 q 947 448 880 366 q 1171 682 1075 595 q 1378 802 1305 802 q 1411 786 1398 802 q 1425 751 1425 771 q 1324 596 1425 681 q 1118 460 1259 543 q 955 357 981 380 q 817 210 895 304 q 687 55 751 133 q 672 31 680 47 l 684 23 q 822 81 734 21 q 920 147 918 147 z "},"":{"ha":269,"x_min":19,"x_max":249,"o":"m 19 437 l 19 441 q 174 350 83 422 q 240 448 203 418 l 249 440 q 191 286 208 382 l 181 286 q 19 437 105 375 z "},"":{"ha":1007,"x_min":0,"x_max":305,"o":"m 56 284 l 0 284 l 0 295 l 19 295 l 121 382 l 165 511 l 146 511 l 146 522 l 225 522 l 230 516 q 220 511 230 511 q 208 511 217 510 l 184 437 l 268 511 l 250 511 l 246 516 q 270 524 245 524 q 305 522 284 524 l 305 511 l 288 511 l 177 412 l 134 295 l 153 295 l 153 284 l 72 284 l 70 292 l 90 295 l 112 357 l 37 295 l 56 295 l 56 284 z "},"":{"ha":218,"x_min":-16,"x_max":235,"o":"m 20 284 q -16 324 -16 284 q 67 455 -16 378 q 206 532 151 532 q 235 500 235 532 q 153 366 235 448 q 20 284 71 284 m 21 293 q 146 374 66 293 q 227 500 227 454 q 208 523 227 523 q 86 435 174 523 q -1 314 -1 347 q 21 293 -1 293 z "},"":{"ha":218,"x_min":-9,"x_max":268,"o":"m 268 511 l 250 511 q -6 284 129 399 l -9 291 l 122 511 l 103 511 l 103 520 l 184 520 l 184 511 l 167 511 l 88 384 l 231 511 l 214 511 l 210 515 q 233 522 211 522 q 268 520 248 522 l 268 511 z "},"":{"ha":954,"x_min":121,"x_max":1310,"o":"m 429 292 q 488 258 429 258 q 700 353 567 258 q 883 513 804 428 l 1216 871 l 1310 871 l 809 313 q 587 107 685 174 q 305 12 447 12 q 188 32 237 12 q 121 119 121 60 q 141 179 121 155 q 196 203 161 203 q 234 170 234 203 q 222 139 234 153 q 192 125 210 125 q 155 148 172 125 q 147 111 147 130 q 207 44 147 66 q 306 28 250 28 q 591 161 452 28 q 800 412 650 216 q 485 240 604 240 q 388 311 388 240 q 496 511 388 397 q 696 703 596 607 q 804 881 804 811 q 739 951 804 925 q 637 972 689 972 q 359 894 505 972 q 191 684 191 804 q 300 604 191 604 q 492 665 391 604 q 641 780 559 705 q 722 848 713 846 l 731 840 l 728 833 q 300 586 483 586 q 213 608 248 586 q 172 682 172 633 q 347 907 172 813 q 640 988 497 988 q 758 962 705 988 q 824 870 824 929 q 722 644 824 765 q 532 454 715 637 q 429 292 429 351 m 989 1113 q 1023 1076 1023 1113 q 989 1040 1023 1040 q 964 1051 975 1040 q 954 1076 954 1062 q 964 1101 954 1090 q 989 1113 975 1113 m 1131 1113 q 1164 1076 1164 1113 q 1131 1040 1164 1040 q 1095 1076 1095 1040 q 1131 1113 1095 1113 z "},"":{"ha":580,"x_min":-477,"x_max":678,"o":"m 551 441 q 507 395 550 423 q 467 439 479 412 q 485 464 468 446 q 509 483 502 483 q 551 441 523 483 m 227 387 q 476 534 331 433 q 659 724 659 661 q 616 759 659 759 q 408 604 550 759 q 227 387 350 541 m -38 165 l 16 225 q -20 207 -2 216 q -41 176 -41 193 q -38 165 -41 176 m -93 105 l -56 148 l -62 166 l -93 105 m -401 -348 l -477 -348 q -264 -96 -371 -222 q -79 174 -147 49 q -149 128 -106 153 l -157 138 l -153 145 q -65 203 -98 183 q -1 286 -43 286 q 20 258 20 286 q 96 315 47 275 q 350 587 223 451 q 630 779 541 779 q 664 766 649 779 q 678 734 678 753 q 483 517 678 647 q 205 355 461 503 q -1 115 182 342 q 30 104 12 104 q 332 284 122 104 l 408 284 q 191 31 191 41 q 204 23 191 23 q 345 84 254 23 q 439 146 436 146 l 444 138 l 442 134 q 191 -1 294 -1 q 151 30 151 -1 q 172 110 151 73 q 222 176 178 120 q 41 85 108 85 q -18 99 6 85 l -401 -348 z "},"":{"ha":585,"x_min":-477,"x_max":946,"o":"m 491 387 q 745 549 686 507 q 928 751 928 680 q 886 784 928 784 q 673 618 817 784 q 491 387 627 566 m 227 387 q 476 534 331 433 q 659 724 659 661 q 616 759 659 759 q 408 604 550 759 q 227 387 350 541 m -38 165 l 16 225 q -20 207 -2 216 q -41 176 -41 193 q -38 165 -41 176 m -93 105 l -56 148 l -62 166 l -93 105 m -18 99 l -401 -348 l -477 -348 q -264 -96 -371 -222 q -79 174 -146 49 q -149 128 -106 154 l -157 138 l -153 145 q -65 203 -98 183 q -1 286 -43 286 q 20 258 20 286 q 96 315 47 276 q 350 587 223 451 q 630 779 541 779 q 664 766 649 779 q 678 734 678 753 q 580 589 678 672 q 376 452 508 528 q 205 355 291 404 q -1 115 182 342 q 34 103 16 103 q 191 175 79 103 q 333 284 294 241 q 595 585 464 435 q 886 802 798 802 q 946 751 946 802 q 844 597 946 682 q 638 460 779 543 q 475 357 500 380 q 336 211 414 304 q 206 55 271 133 q 193 31 200 47 l 204 23 q 344 82 254 21 q 441 146 438 146 l 445 138 l 444 134 q 327 45 390 83 q 193 -1 248 -1 q 152 30 152 -1 q 174 110 152 73 q 224 176 180 120 q 132 116 137 119 q 30 85 77 85 q -18 99 7 85 z "},"":{"ha":945,"x_min":-47,"x_max":903,"o":"m 372 1030 l 372 941 l -47 941 l -47 1030 l 372 1030 m 903 846 l 903 751 l -47 751 l -47 846 l 903 846 m 903 658 l 903 564 l -47 564 l -47 658 l 903 658 m 903 467 l 903 374 l -47 374 l -47 467 l 903 467 m 903 94 l 903 0 l -47 0 l -47 94 l 903 94 m 903 1030 l 903 941 l 486 941 l 486 1030 l 903 1030 m 372 279 l 372 191 l -47 191 l -47 279 l 372 279 m 903 279 l 903 191 l 486 191 l 486 279 l 903 279 z "},"":{"ha":285,"x_min":-154,"x_max":148,"o":"m 112 284 q -6 153 53 219 q -104 31 -102 45 l -92 23 q 141 148 -18 20 l 148 138 q 37 53 147 109 q -105 -1 -68 -1 q -148 43 -148 -1 q -121 115 -148 77 q -72 176 -119 118 q -146 131 -101 155 l -154 140 l -149 148 q 35 284 -35 223 l 112 284 z "},"":{"ha":201,"x_min":106,"x_max":243,"o":"m 243 394 q 223 347 243 366 q 174 328 203 328 q 125 346 145 328 q 106 394 106 365 q 126 444 106 423 q 176 464 146 464 q 223 443 203 464 q 243 394 243 422 m 130 394 q 175 350 130 350 q 218 394 218 350 q 176 438 218 438 q 130 394 130 438 z "}}}
